<svg width="366" height="276" fill="none" xmlns="http://www.w3.org/2000/svg"><g opacity=".2" stroke="#6246E5"><path d="M127.673 368.92c-67.605 0-122.431-56.273-122.431-125.718 0-69.444 54.826-125.718 122.431-125.718 67.604 0 122.431 56.274 122.431 125.718 0 69.445-54.827 125.718-122.431 125.718Z"/><path d="M140.613 373.902c-75.645 0-136.989-62.965-136.989-140.665 0-77.699 61.344-140.664 136.989-140.664 75.644 0 136.988 62.965 136.988 140.664 0 77.7-61.344 140.665-136.988 140.665Z"/><path d="M151.127 378.885c-82.792 0-149.93-68.914-149.93-153.951 0-85.037 67.138-153.95 149.93-153.95 82.791 0 149.928 68.913 149.928 153.95 0 85.037-67.137 153.951-149.928 153.951Z"/><path d="M166.493 382.206c-89.044 0-161.251-74.118-161.251-165.576 0-91.457 72.207-165.576 161.251-165.576 89.045 0 161.252 74.119 161.252 165.576 0 91.458-72.207 165.576-161.252 165.576Z"/><path d="M181.455 385.527c-95.074 0-172.17-79.137-172.17-176.786S86.382 31.955 181.456 31.955c95.074 0 172.17 79.137 172.17 176.786s-77.096 176.786-172.17 176.786Z"/><path d="M198.439 389.68c-104.454 0-189.153-86.945-189.153-194.224 0-107.28 84.699-194.225 189.153-194.225s189.154 86.945 189.154 194.225c0 107.279-84.7 194.224-189.154 194.224Z"/></g></svg>