<svg width="198" height="274" fill="none" xmlns="http://www.w3.org/2000/svg"><g opacity=".2" stroke="#6246E5"><path d="M263.158 178.32c0 50.713-40.094 91.803-89.527 91.803s-89.527-41.09-89.527-91.803c0-50.713 40.094-91.803 89.527-91.803s89.527 41.09 89.527 91.803Z"/><path d="M266.712 168.604c0 56.75-44.868 102.734-100.188 102.734-55.321 0-100.188-45.984-100.188-102.734 0-56.751 44.867-102.734 100.188-102.734 55.32 0 100.188 45.983 100.188 102.734Z"/><path d="M270.266 160.709c0 62.117-49.111 112.451-109.665 112.451-60.554 0-109.665-50.334-109.665-112.451 0-62.116 49.111-112.45 109.665-112.45 60.554 0 109.665 50.334 109.665 112.45Z"/><path d="M272.635 149.171c0 66.812-52.823 120.952-117.957 120.952-65.134 0-117.956-54.14-117.956-120.952 0-66.811 52.822-120.951 117.956-120.951S272.635 82.36 272.635 149.17Z"/><path d="M275.004 137.937c0 71.34-56.403 129.15-125.953 129.15-69.55 0-125.952-57.81-125.952-129.15 0-71.339 56.403-129.15 125.952-129.15 69.55 0 125.953 57.811 125.953 129.15Z"/><path d="M277.965 125.185c0 78.382-61.971 141.902-138.39 141.902-76.419 0-138.39-63.52-138.39-141.902 0-78.382 61.971-141.902 138.39-141.902 76.419 0 138.39 63.52 138.39 141.902Z"/></g></svg>