<svg aria-hidden="true" style="width:0;height:0;position:absolute;overflow:hidden" xmlns="http://www.w3.org/2000/svg"><defs><symbol id="icon-burger" viewBox="0 0 32 32"><path d="M4 5.333h24V8H4V5.333zm0 9.334h24v2.667H4v-2.667zM4 24h24v2.667H4V24z"/></symbol><symbol id="icon-email" viewBox="0 0 26 18"><path d="m4.952 6 6.91 4.186a1 1 0 0 0 1.037 0L19.81 6"/><rect width="25" height="17" rx="4.5"/></symbol><symbol id="icon-player" viewBox="0 0 30 32"><path d="M29.538 16 1.846 31.988V.012L29.538 16z"/></symbol><symbol id="icon-send" viewBox="0 0 33 32"><path fill="#fff" style="fill:var(--color2,#fff)" d="M27.353 9.448a2.403 2.403 0 0 1-.177 2.706L13.741 29.686a2.43 2.43 0 0 1-2.399.913 2.428 2.428 0 0 1-1.889-1.737l-2.195-7.811-5.667-5.807a2.428 2.428 0 0 1-.56-2.505 2.432 2.432 0 0 1 1.99-1.622l21.901-2.869a2.404 2.404 0 0 1 2.432 1.2z"/><path fill="#fff" style="fill:var(--color2,#fff)" d="m7.464 21.786 1.988 7.075a2.426 2.426 0 0 0 1.889 1.737 2.43 2.43 0 0 0 2.399-.913l13.436-17.532a2.405 2.405 0 0 0 .177-2.706L7.257 21.049l.207.736z"/><path style="fill:var(--color3,#000)" d="M15.435 16.328a.742.742 0 0 1-.271 1.012l-7.699 4.445-.207-.736-.534-.547 7.699-4.445a.74.74 0 0 1 1.012.271z"/><path style="fill:var(--color3,#000)" d="m7.465 21.786 7.699-4.445a.74.74 0 0 0 .271-1.012L7.257 21.05l.207.736z"/></symbol><symbol id="icon-arrow" viewBox="0 0 10 7"><path d="M.743 1 5.16 5.5 9.58 1" fill="none"/></symbol><symbol id="icon-close" viewBox="0 0 128 128"><path d="M64 6c-15.5 0-30.1 6-41 17C12 33.9 6 48.5 6 64s6 30.1 17 41c11 11 25.5 17 41 17s30.1-6 41-17c11-11 17-25.5 17-41s-6-30.1-17-41C94.1 12 79.5 6 64 6zm0 6c13.9 0 26.9 5.4 36.8 15.2C110.7 37 116 50.1 116 64c0 13.9-5.4 26.9-15.2 36.8C90.9 110.6 77.9 116 64 116c-13.9 0-26.9-5.4-36.8-15.2C17.3 91 12 77.9 12 64c0-13.9 5.4-26.9 15.2-36.8C37 17.3 50.1 12 64 12zM50.562 47.5c-.762 0-1.512.3-2.062.9-1.2 1.2-1.2 3.1 0 4.2L59.8 64 48.4 75.3c-1.2 1.2-1.2 3.1 0 4.2.6.6 1.4.9 2.1.9.7 0 1.5-.3 2.1-.9L64 68.2l11.3 11.3c.6.6 1.4.9 2.1.9.7 0 1.5-.3 2.1-.9 1.2-1.2 1.2-3.1 0-4.2L68.2 64l11.3-11.3c1.2-1.2 1.2-3.1.1-4.3-1.2-1.2-3.1-1.2-4.2 0L64 59.8 52.7 48.4c-.6-.6-1.375-.9-2.138-.9z"/></symbol><symbol id="icon-burger" viewBox="0 0 32 32"><path d="M4 5.333h24V8H4V5.333zm0 9.334h24v2.667H4v-2.667zM4 24h24v2.667H4V24z"/></symbol><symbol id="icon-paperplane" viewBox="0 0 35 31"><path d="M34.94 15.683a3.305 3.305 0 0 1-2.071 3.1L4.817 30.424a3.34 3.34 0 0 1-3.485-.562 3.339 3.339 0 0 1-1.055-3.368l2.497-9.792.26-1.018-.26-1.019L.277 4.872a3.339 3.339 0 0 1 1.055-3.368A3.342 3.342 0 0 1 4.817.941l28.052 11.64a3.305 3.305 0 0 1 2.07 3.102Z" fill="#fff"/><path d="M2.774 16.701.277 26.493a3.339 3.339 0 0 0 1.055 3.368 3.34 3.34 0 0 0 3.485.563l28.052-11.64a3.305 3.305 0 0 0 2.07-3.101H3.034l-.26 1.018Z" fill="#fff"/><path d="M16.017 15.683c0 .562-.455 1.018-1.018 1.018H2.774l.26-1.018-.26-1.019h12.225c.562 0 1.018.457 1.018 1.019Z" fill="#747DEF"/><path d="M2.774 16.701h12.225c.562 0 1.018-.456 1.018-1.018H3.033L2.774 16.7Z" fill="#747DEF"/></symbol><symbol id="icon-decoration" viewBox="0 0 376 12"><path d="m54.828-2.538.941-.158-1.83-.227.877-.166c.88.002 2.02.25 2.64.118.077-.128-.882-.169-1.126-.27a3.178 3.178 0 0 1-.528-.31c.48 0 1.006.025 1.55.072.73.076 1.447.113 2.071.107 1.276.02 2.508 0 3.895.005l-.462-.308 1.787.072c.19.023.415-.015.602.014 1.548.246 2.204.112 2.947.001.153-.029.336-.05.546-.064 2.067.06 3.93.403 5.79.58.35.045.686.103.984.17.647.13 1.367.235 2.094.307.727.073 1.437.11 2.066.107a44.284 44.284 0 0 1 4.564.248c.475.055.951.09 1.398.106.446.015.852.01 1.192-.018l1.082.176c.47-.071 1.064-.11 1.748-.115.684-.005 1.444.025 2.233.088.84.069 1.694.115 2.567.187 1.801.138 3.554.222 5.205.25 2.458.084 4.86.149 7.34.253 1.551.05 3.063.078 4.526.082 1.752.02 3.647.115 5.594.281-.092.156-.946.11-1.519.105-1.848-.026-3.74-.093-5.642-.144-.857-.02-1.69-.027-2.494-.022a90.704 90.704 0 0 1-4.231-.124c-2.317-.083-4.56-.123-6.706-.12a6.15 6.15 0 0 0-.46.033c-.029.013-.034.03-.017.05a.313.313 0 0 0 .12.057c.06.02.136.038.223.053.086.015.18.026.271.033.852.106 1.768.22 2.572.235a1.16 1.16 0 0 1 .19.024c1.799.223 3.278.185 4.68.221 2.327.098 4.571.144 6.697.137.321 0 .668.013 1.028.037 2.226.1 4.308.111 6.148.033.757-.02 1.461-.064 2.274-.064a9.329 9.329 0 0 0 1.283-.083c.345-.052.592-.126.726-.218.343.048.692.092 1.041.129.209.021.41.027.561.016.151-.011.242-.039.255-.076.062-.106-.415-.16-.828-.204.249-.023.53-.036.836-.04a99.642 99.642 0 0 1 5.508.085c1.501.096 2.7.018 4.28.154.189.023.345-.011.52-.02a12.653 12.653 0 0 1 1.65-.028c.629.025 1.301.084 1.959.171.819-.239 2.589.034 3.896.059.403.121-.059.1-.079.133-.02.033 0 0-.158-.02-1.305.173-3.093.21-5.113.108-.373 0-.729.008-1.064.023-.507.022-1.079.02-1.691-.006a19.063 19.063 0 0 0-1.811.026c-.305 0-.563.018-.75.053-.186.036-.296.087-.319.15.204.048.429.092.668.13 1.248.151 2.493.213 3.489.175 1.733-.066 3.796-.001 5.639-.024 1.246-.01 2.572.017 3.953.078l-.04.066c.164.027.335.048.506.063l.016-.028a1.933 1.933 0 0 0-.296-.072l-.41-.051c.279-.013.539-.053.83-.029.612.045 1.198.064 1.721.056a9.002 9.002 0 0 0 1.323-.103 17.58 17.58 0 0 1 2.263-.102 60.592 60.592 0 0 0 1.929-.053s.04-.067.332-.103a13.08 13.08 0 0 0-.852-.105 237.174 237.174 0 0 0-3.729-.17c-.452-.004-.878.003-1.267.023-1.08.023-2.294-.01-3.57-.096l-.378-.047c.358-.147 1.592 0 2.092-.099.303.002.838.014.82-.012-.042-.035-.047-.067-.015-.095a.438.438 0 0 1 .2-.065c.1-.015.228-.022.377-.022.148 0 .312.009.48.025 1.405.085 2.729.109 3.89.07.44 0 .933.025 1.37.032.267.007.511.003.719-.013 1.055-.117 2.475-.125 4.047-.024.76.036 1.469.041 2.093.014.443-.005.631.078.947.117l1.34.083-1.721.103c.368.237.66.315 1.261.33.878.022 1.732.032 2.558.03.611-.002 1.116-.053 1.943.037.146.015.287.02.399.014.969-.08 2.136-.099 3.421-.054.665-.15 1.798-.004 2.847.114.338-.114-.275-.166-.641-.235.877.007 1.76.003 2.666.02.272-.006.583.004.909.03.326.025.657.066.968.118.151.034.334.06.51.071.176.012.332.01.435-.007.47-.05 1.222-.004 1.611-.087.138-.02.335-.022.556-.008.221.014.452.045.651.085a5.697 5.697 0 0 0-.577.06c-.595.088-.376.234.379.447 1.159-.011 2.343-.008 3.417-.048a16.499 16.499 0 0 1 2.119.032 22.58 22.58 0 0 1 2.331.292c.267.051.572.087.853.1.281.012.519.001.666-.031.091-.038.119-.086.082-.14l-.758-.093.037-.061 1.089-.009c.576 0 1.177.015 1.722.01.8-.028 1.714-.012 2.684.046.895.06 1.775.105 2.631.135.829.03 1.43-.068 2.218-.084.597-.012 1.253.001 1.944.038 1.193.065 2.288.065 3.185 0 1.046.35 1.554.408 2.525.313l.457-.027.125.075.349-.016c.652-.015 1.305-.03 1.986-.035a30.6 30.6 0 0 1 2.967.254c.189.024.447.103.613.166.167.062.529.25.796.373-.291.09-.612.175-.843.278-.023.017-.021.038.007.06a.482.482 0 0 0 .151.07c.073.023.163.044.264.063.102.018.211.032.32.042.212.02.422.034.62.04.975.012 1.909.004 2.793-.024a7.31 7.31 0 0 1 1.255-.01c.491.032 1.002.097 1.454.185 1.156-.053 2.5-.037 3.938.046 1.521-.05 3.358.051 4.779-.06-.033.056.114.152.318.207.324.084.69.162 1.084.23l3.005.133c.112.069.252.138.419.207.114.055.313.109.554.15.242.04.507.066.739.07.598.02 1.099-.025 1.812.087-1.098.106-2.579.092-4.178-.04-1.503-.1-2.949-.15-4.284-.148-.44 0-1.02.005-1.157.066-.305.171-1.102.144-2.032.113a16.224 16.224 0 0 0-1.948.01c-.549.043-.964.122-1.212.231-.062.106.088.196.729.258l2.666.246c.394-.031.766-.069 1.118-.112a16.944 16.944 0 0 1 2.135-.046c.812.027 1.685.096 2.55.202.442.055.884.11 1.205.084.281-.03.54-.066.775-.107.047-.028.066-.06.056-.095.17.016.34.037.505.063 1.316.294 2.336.289 3.262.213.251-.023.442-.06.696-.087.254-.029.343-.065.574-.055 1.841.097 2.371-.226 3.922-.213.075-.012.122-.031.136-.054.014-.024-.006-.05-.057-.08a4.065 4.065 0 0 0-.758-.094c-.714-.04-1.344-.028-1.783.037-.311.026-.641.047-.986.063l-1.554-.467c1.505.043 2.928.042 4.237-.001.285-.024.769.018 1.171.025l2.956.044c.608.004 1.126-.07 1.973.101 0 0 .56.028.709.004.15-.023.812-.168 1.207-.262.458.027 1.093.1 1.378.075.499-.06.931-.137 1.288-.229l1.786.132c-.002.117-.067.227-.195.328-.139.098-.134.215.014.343.149.127.436.26.84.39l1.763.684c.288.046.595.077.879.088.284.012.531.004.709-.023.759-.079 1.609-.14 2.367-.22.979.121.727.317 1.439.489l2.304.285c.352.265.71.518-.359.607-.213.015-.069.116-.263.158.831.199 1.745.258 2.587.38.332.088.61.181.82.275.23.141.698.285 1.301.401.603.116 1.294.195 1.923.22a49.81 49.81 0 0 1 3.194.33c.361.05.732.086 1.088.106.356.02.689.024.976.011 1.023-.022 1.889-.1 2.542-.228.645-.109 1.515-.161 2.53-.153 1.736.215 2.087.54 3.137.825l-1.815.032c-.065.111.055.251-.689.249-.744-.003-.367.104-.126.211.085.054.251.11.47.158.219.048.477.084.731.104l1.545.138c.548.052 1.078.075 1.532.065.454-.01.815-.053 1.043-.122.262-.066.623-.111 1.061-.132.558-.054 1.017-.134 1.36-.237l2.182.15c.092-.103.392-.176.848-.206.456-.03 1.04-.014 1.654.045l1.47.092c1.634.101 1.993.068 2.471-.225l-1.96-.524c.285-.138.56-.259.836-.38-.489-.172-1.14-.336-1.889-.473a96.307 96.307 0 0 0-2.152-.428c-.798-.14-1.641-.263-2.631-.421-.173-.051-.424-.142-.745-.23a35.32 35.32 0 0 0-1.004-.25c.066-.11.125-.21-.002-.34.61.041 1.24.113 1.834.21a13.02 13.02 0 0 1 1.566.343c.073.022.163.044.263.062.1.019.208.034.317.045 1.072.08 1.584.244 2.108.446.353.104.808.196 1.302.263.947.117 1.874.268 2.78.398.277.043.565.08.852.106a41.01 41.01 0 0 1 2.81.348c.297.037.582.086.831.143.25.056.456.12.602.183-.226.07-.347.16-.358.26-.039.068.625.204.94.302.314.099-.302.052-.511.062-.859.02-1.018.06-.504.278.172.07.286.138.335.203.049.064.032.123-.049.173-.122.206-.494.375-.749.576.396.133 1.058.275 1.13.439a.598.598 0 0 0 .214.113c.107.038.244.074.401.106.416.07.794.153 1.105.243.31.09.546.186.688.278.046.038.158.079.314.114.155.034.342.06.524.073a2.7 2.7 0 0 0 .542-.005c.131-.02.189-.055.163-.098a.398.398 0 0 0-.086-.256c.036-.061.073-.122-.071-.224.647.037 1.327.111 1.965.215.638.103 1.209.231 1.653.37.491.145.943.297 1.487.466-.112.189-.112.189 1.045.523l6.139.163 1.258.222c1.173.193 1.452.18 2.189.08l.496-.094c1.042.13 2.242.278 2.893.036.212.157.35.21.302.234-.311.233-.852.43-1.6.585-.191.036-.325.09-.548.123-.717.181-.883.462-.465.784.208.143.51.289.896.434-.565.2-1.314.367-2.225.494-.774.1-1.411.231-1.893.393-.433.163-1.082.286-1.909.36-.419.033-.725.096-.887.184-.048.237.063.492.33.757.051.08.194.168.419.255.225.087.525.171.877.246 0 0 .17.057.251.09.068.289-.186.542-.745.745-.092.057-.28.098-.543.12a7.1 7.1 0 0 1-.952-.001c-.759-.034-1.468-.038-2.202-.058-.791-.027-1.488-.006-2.017.062-.529.068-.871.18-.99.324a.22.22 0 0 1-.07.117c-.022.02-.034.04-.036.061l1.686.472-1.907.188c-.112.189.803.302 1.262.443l-.284.078c-.365.044-.857-.04-1.302-.09l-.442-.055-.053.09c-.275.12-1.278-.015-1.67.073-.391.09-.112.19.475.286.407.072.845.13 1.28.167.435.039.856.057 1.232.055.223-.01.409-.032.546-.064a38.032 38.032 0 0 1 2.617-.357c.729-.088 1.642-.126 2.675-.11.303-.007.668.014 1.032.059s.703.111.957.187l.535.012s.292.078.251.091c-.204.232.033.514.674.806l-.558.027c-.797-.027-.291.149-.411.236-.566-.017-1.302-.09-1.57.02l-.402-.008.157.02.191-.037.75.165c-.355.028-.613.061-.926.076a1.78 1.78 0 0 0-.406.068c-.094.031-.143.07-.143.115.001.07-.093.127-.272.169a3.727 3.727 0 0 1-.75.069c-.374.002-.588.076-.807.103l.952.452s-.474-.058-.216.021l.033-.055.577.113c.416.1.706.123.952.052.245-.07.189.024.307-.004-.043.073-.31.123-.539.167-.265.034-.564.059-.892.074.591.318.62.328-.244.412-.863.084-.565.21-1.287.229-.723.018.099.233.582.275.359.027.724.07 1.071.126.348.055.669.122.942.195l-.145.245a11.29 11.29 0 0 1-.632-.078c-.7-.135-1.336-.262-1.959-.183l.297.186-2.173-.108c.056.14.388.298.924.443a.496.496 0 0 0-.149.25c-.036.061-.25.023-.39.03-.497.01-.906.051-1.189.12-.283.07-.432.164-.435.275-.056.095.709.291 1.187.285 1.194.018 2.486.091 3.804.214.804.016.917-.233 2.24-.063.026.115-.143.208-.483.265-.339.057-.83.075-1.399.051.324.255 2.114.322 2.193.588a14.293 14.293 0 0 1-1.383-.128c-.46-.065-.889-.15-1.242-.244a2.237 2.237 0 0 0-.279-.063 3.54 3.54 0 0 0-.33-.039 2.625 2.625 0 0 0-.301-.005.748.748 0 0 0-.197.03c.248.096.521.207.832.311.311.105.386.15.61.171 1.673.208 2.469.58 3.916.826.379.047.426.196.098.18a5.76 5.76 0 0 0-.819.005c-.221.021-.373.06-.438.113-.243.062-.545.11-.9.145 1.485.384 3.255.722 5.144.984.358.052.732.083 1.065.09 1.055 0 2.174.03 3.336.09.411.017.792.015 1.12-.004 1.078-.046 1.934.055 2.716.337l1.293.446c-.042.073-.26.153-.427.264l1.011.239 7.713-.55 1.548.532 2.221-.03c.17.016.341.037.505.063.449.157.8.308 1.287.458.487.15 1.358.168 1.965.345.607.177 1.214.18 1.965.285.071.137-.002.26-.214.362-.069.117-.451.189-.517.3.008.113-.134.208-.412.278-.278.07-.684.112-1.18.122-1.39.24-3.066.41-4.977.507a2.253 2.253 0 0 0-.409.047c-.102.024-.164.056-.183.094.003.11-.125.204-.373.276-.248.073-.611.122-1.062.144a.822.822 0 0 0-.26.039c-.171.014-.296.04-.362.076-.066.037-.071.082-.015.131.055.05.17.102.334.152.163.05.369.096.598.134.332.06.671.118 1.015.173-.019.034-.362.04-.312.07.135.095.167.185.092.262-.075.077-.254.138-.523.18l1.843.777c1.119.108 2.217.29 3.085.514.001.036-.049.067-.145.088a2 2 0 0 1-.403.035c-.45.016-.875.047-1.36.064a4.097 4.097 0 0 0-.725.085c-.183.043-.298.1-.338.166l1.082.29c-.346.07-.604.103-.833.147.13.09.353.185.653.275.299.09.666.173 1.073.243.11.015.221.025.328.031.107.006.207.008.295.005.839-.1 1.819.075 2.771.241.953.166 1.47.266 2.173.395l1.345.017c.34.06.644.133.887.21.243.076.418.156.511.232-.072.122-.71.055-1.09.068-.902.076-2.088.06-3.362-.046-.316-.04-.639-.008-.946-.004-.663.015-1.3.04-1.908.074-.401.032-.775.072-1.121.118-.092.156 1.362.276.537.353.284.035.39.085.536.067.936.101 1.858.151 2.66.144a51.64 51.64 0 0 1 5.096.207c1.955.164 3.831.232 5.472.2.626-.002 1.324.032 2.043.098.85.092 1.693.15 2.476.17a9.507 9.507 0 0 1 1.696.168c-.023.038-.277.067-.22.086.81.291 1.138.595 2.385.892.852.106 1.831.227 2.388.087.558-.14.358-.26-.751-.618.24-.006.53.011.819.047.288.035.557.088.759.148l.959.268.865.256-.198.334c-.099.113.01.25.311.391a4.5 4.5 0 0 1 .473.232c.54.307.697.597.452.838-.47.346-1.124.665-1.954.953-.878.28-1.358.632-2.08.936a9.166 9.166 0 0 1-1.339.372c-.99.242-2.075.471-3.069.719-.994.247-2.116.424-3.219.628-1.643.242-3.419.45-5.318.625-1.175.154-2.382.303-3.469.479-1.284.198-2.792.34-4.487.423-1.497.1-2.835.246-3.987.438-.121.02-.216.047-.284.078-.207.196-.789.334-1.656.392.053.058.12.116.202.175.12.07.146.136.072.188-.073.053-.242.09-.484.107-.693.048-1.269.13-1.703.243-.159.028-.258.07-.288.12-.029.05.01.108.117.17.094.062.101.12.02.165-.082.046-.247.076-.476.089-.587.059-1.215.107-1.881.143-1.417.079-3.065.078-4.844-.003-.189-.023-.38.013-.601-.015-1.259-.09-2.427-.105-3.365-.04-1.099.025-2.249.02-3.408.032a58.838 58.838 0 0 0-4.591.142c-1.568-.099-2.449.072-3.773.076-1.222.017-2.38.06-3.463.126-1.747.088-3.487.166-5.209.269-1.615.05-3.102.143-4.436.28-.511.063-1.437-.034-1.785.096-.348.13-1.05.115-1.618.158l-1.792.106c-.308.026-.647.042-1.011.048-1.665.01-2.819.183-4.365.218l-.158-.02c-2.745.259-5.886.4-9.331.421-2.012.08-4.213.076-6.348.134-.51.116-1.713-.027-2.351.079-.639.106-1.683.036-2.506.054-.824.017-1.629.061-2.509.06-.765 0-1.41.047-1.878.137-1.068.149-2.369.236-3.847.258-1.954.039-3.802.127-5.79.107.029.108-.093.2-.353.267s-.648.105-1.125.111c-2.126.042-4.053.15-6.207.181h-.576l-6.442.063c-1.735.012-3.407.032-5.177.045-.663-.082-.68.06-1.138.033-.128-.07-.279-.1-.505-.063l-.05.084-7.351.11c-2.878.081-5.906.105-9.057.073-.748.008-1.445.036-2.082.082-.591.017-1.206.025-1.843.023-.862-.021-1.704-.032-2.523-.032a278.21 278.21 0 0 1-6.773-.009c-2.358-.023-4.145.019-6.244.015a209.67 209.67 0 0 1-4.308-.05c-.702-.015-1.568-.098-2.295-.129-.728-.03-.965-.03-1.062.018-.316.134-1.112.048-1.748.035-1.241-.023-1.417-.068-1.754-.415l1.522-.11c.374-.035.843-.042 1.363-.018.52.024 1.074.076 1.607.153a8.82 8.82 0 0 0 1.261.103c1.536-.02 3.051-.059 4.527-.09l.216-.022.013-.309a9.976 9.976 0 0 0-.599-.074l-7.405-.2c-1.699-.05-3.463-.16-5.131-.206a378.642 378.642 0 0 1-3.86-.12 60.956 60.956 0 0 1-1.666-.104.155.155 0 0 0 .056-.095c.03-.05.07-.117-.17-.17a6.115 6.115 0 0 0-.977-.181 14.651 14.651 0 0 0-.99-.045 33.043 33.043 0 0 1-4.78-.455l-.545.178c-2.347-.1-4.729-.198-7.181-.293a17.924 17.924 0 0 1-1.507-.144c-.536-.067-1.03-.206-1.595-.282a39.412 39.412 0 0 0-1.653-.127c.146-.045.339-.082.572-.108.23-.01.397-.038.478-.081.081-.044.071-.1-.029-.162-.174-.105-.251-.204.129-.217.351-.024.603-.076.725-.15.121-.073.108-.166-.038-.266a.567.567 0 0 1-.135-.172l-.158-.02c-.52-.208-1.56-.283-2.307-.453a8.239 8.239 0 0 0-1.036-.08c-.826-.037-1.63-.053-2.484-.099-.407-.021-.834-.06-1.254-.114-.6-.074-.663-.082-1.011-.352.541.005.97-.035 1.214-.114s.289-.19.126-.317c-.446-.276-.918-.568-2.936-.764.658-.01 1.292-.029 1.898-.057.176-.007.308-.027.378-.059.07-.031.075-.073.014-.119a1.145 1.145 0 0 0-.357-.137 4.693 4.693 0 0 0-.598-.107 31.066 31.066 0 0 0-3.21-.302c-.87-.019-1.656-.008-2.672-.009l-1.2-.148c.02-.034-.156-.08-.112-.098.305-.171.642-.339.988-.523a8.884 8.884 0 0 1-1.383-.346c-.35-.127-.558-.255-.598-.37-.03-.035-.022-.067.023-.094a.663.663 0 0 1 .237-.06c.316-.022.56-.065.712-.124.153-.06.211-.135.17-.22l-.933-.313a186.437 186.437 0 0 0-8.224-.475l-2.399-.07c-.289-.084-.199-.12.073-.122.272-.003 1.038.02 1.573.033a8.24 8.24 0 0 0 1.191-.031c.318-.037.535-.099.628-.18l-.805-.356c.039-.067.095-.161.532-.155.299-.008.518-.041.624-.095.106-.055.092-.126-.041-.203-.02-.056.01-.107.089-.15.646-.004 1.289-.002 1.875-.019.273-.006.504-.026.676-.06.172-.035.283-.082.323-.139.021-.055-.03-.118-.15-.184a2.533 2.533 0 0 0-.541-.194c-.918-.077-1.759-.078-2.336-.003-.206.059-.537.09-.949.092-.412.001-.886-.028-1.36-.085a10.665 10.665 0 0 0-1.525-.08c-.443.012-.758.066-.889.151-.556-.033-1.05-.058-1.537-.095a12.967 12.967 0 0 0-1.569-.039c-.724.015-1.505.006-2.323-.025-2.361-.077-4.724-.149-7.009-.18-.605-.01-1.128.015-1.726-.006-.598-.02-1.071.035-1.819-.075a4.7 4.7 0 0 0-.418-.033c-.133-.004-.252 0-.347.01-1.313.087-2.853.099-4.529.036-2.295-.016-4.675-.06-6.973-.07-.675.009-1.312.032-1.905.069a42.39 42.39 0 0 1-1.416.045c-.377.008-.738-.013-.674.108.063.121-.501.045-.827.023a102.378 102.378 0 0 1-3.417-.238 40.947 40.947 0 0 0-3.28-.185c-.74-.008-1.504.023-2.456-.143.036-.061.073-.123.28-.187a26.868 26.868 0 0 0-2.585-.44 30.254 30.254 0 0 0-2.719-.216l-1.192-.333c-.294-.04-.593-.068-.88-.084a8.34 8.34 0 0 0-.793-.01 4.355 4.355 0 0 1-1.2-.148 7.422 7.422 0 0 0-1.642-.203c-.818-.037-1.693-.12-2.533-.243-.218-.072-.354-.146-.393-.213-.038-.068.024-.125.177-.166.249-.072.388-.164.41-.27.022-.106-.073-.224-.281-.347-.106-.076-.142-.147-.104-.21.037-.063.147-.117.322-.157.653-.188.478-.293-.59-.605a5.818 5.818 0 0 0-.616-.142 9.302 9.302 0 0 0-.731-.102 40.19 40.19 0 0 0-1.73-.113c-.315-.04-.639-.008-1.003-.023-1.818-.076-2.085-.198-2.674-.462l-.429-.19a30.146 30.146 0 0 0-2.55-.376 29.504 29.504 0 0 0-2.554-.161 8.3 8.3 0 0 1-1.04-.075 43.463 43.463 0 0 0-3.45-.296c-.694-.028-1.442-.1-2.154-.207a13.65 13.65 0 0 1-1.86-.398 11.696 11.696 0 0 0-1.688-.352c-.758-.094-.828-.205-.405-.29a37.062 37.062 0 0 1 1.76-.283c.22-.03.355-.08.392-.143.038-.063-.025-.136-.18-.213-.1-.131-.117-.256-.052-.37.035-.049.011-.103-.07-.161a1.544 1.544 0 0 0-.404-.176 5.86 5.86 0 0 0-.664-.16 9.937 9.937 0 0 0-.804-.115c-1.168-.144-2.305-.285-3.496-.39-.5-.05-.998-.112-1.484-.184a41.916 41.916 0 0 0-3.13-.436 8.65 8.65 0 0 1-1.385-.237 50.507 50.507 0 0 1-3.278-.872 6.583 6.583 0 0 0-.914-.268 14.103 14.103 0 0 0-1.206-.215c-.347-.044-.63-.138-.898-.201-.194-.146-.215-.281-.06-.393.155-.11.48-.195.946-.244.442-.059.855-.127 1.236-.2.46-.058 1.008-.093 1.62-.103.728-.032 1.265-.121 1.543-.257-1.99-.246-3.88-.6-5.624-.518l-1.325-.223c.053-.09.1-.167.142-.24.315-.131.413-.297.287-.483-.104-.09-.095-.173.027-.238.122-.066.353-.113.669-.136 1.87-.24 4.034-.402 5.788-.675a19.32 19.32 0 0 1 1.904-.069c.688-.016.659-.139-.132-.29a67.26 67.26 0 0 0-1.356-.228c-2.026-.012-2.852.351-5.164.25l-1.072-.48c-.29-.006-.57-.01-.842-.008l-3.876.195c-.323.01-.575.043-.726.096-.151.053-.196.124-.13.204.026.098-.027.188-.158.267-.085.055-.03.128.15.204.408.17-.115.194-.446.237a2.963 2.963 0 0 1-.286-.001 4.317 4.317 0 0 1-.633-.079 2.177 2.177 0 0 1-.249-.064c-.582-.162-1.09-.333-1.663-.511.407-.17-.071-.45.562-.605.071-.031.1-.069.084-.11-.016-.043-.076-.088-.176-.135-.258-.12-.381-.236-.356-.337.024-.102.196-.186.496-.242l.037-.062c-.794-.205-.583-.388-.895-.606l-.763-.142c-1.898-.343-1.901-.337-3.535-.325-.33-.13.089-.15.403-.165l2.628-.146c1.718-.098 3.487-.165 5.406-.202 1.92-.037 4.06-.16 6.044-.25.1-.006.177-.02.224-.039.047-.019.062-.043.045-.07a2.188 2.188 0 0 0-.302-.083 4.454 4.454 0 0 0-.391-.063c-.632-.078-1.28-.128-1.953-.194l-1.254-.113-.386-.15c-.251-.09-.423-.201-.757-.267a8.733 8.733 0 0 0-.865-.107 6.475 6.475 0 0 0-.79-.014c-.628.03-1.196.073-1.796.112-.599.04-.93.082-1.449.101-1.056.009-2.076.032-3.057.07-.826.088-1.59.193-2.287.314-.435.047-.842.104-1.584.042a4.485 4.485 0 0 1-.858-.209c-.202-.078-.288-.156-.243-.22.04-.05.152-.09.327-.114a4.28 4.28 0 0 1 .673-.03c.746-.01 1.435-.04 2.054-.093.862-.094 1.912-.134 3.087-.119.399.014.666-.037 1.015-.053.348-.017.644-.058 1.032-.028 1.208.078 1.787-.041 2.51-.119.246-.034.398-.09.44-.16.041-.071-.028-.154-.202-.24a10.325 10.325 0 0 0-1.22-.516 7.066 7.066 0 0 0-.918-.233c-.359-.07-.752-.126-1.15-.166-.237-.105-.363-.209-.368-.301-.004-.092.114-.17.343-.228.586-.13 1.105-.263 2.418-.19.617.028 1.197.033 1.718.016 1.157-.024 2.49.028 3.876.151.358.032.71.053 1.046.064 2.395.076 4.677.113 6.966.14 1.212.013 2.434.009 3.7.046 2.968.081 5.67.04 8.534.066 1.5.014 2.844-.04 3.959-.16a3.92 3.92 0 0 0 .557-.14c-.739-.14-1.55-.25-2.357-.32-.807-.071-1.581-.1-2.25-.084a9.33 9.33 0 0 1-1.371.02 15.906 15.906 0 0 1-1.627-.164l1.553-.047c1.03-.022 2.084-.029 3.085-.06 1.59-.054 3.065-.14 4.712-.175 1.33-.032 2.52-.114 3.533-.243a29.16 29.16 0 0 1 2.49-.2c.656-.02.656-.02 1.076-.212-.333-.125-.763-.142-1.169-.145-2.429-.078-4.74-.092-6.888-.04a24.324 24.324 0 0 0-2.838.155c-.194.042-.69.022-1.09.009a78.98 78.98 0 0 0-3.568.018 66.693 66.693 0 0 1-5.128-.038c-.35-.098.053-.09.072-.123 1.427-.062 2.825-.134 4.28-.187.397-.018.822-.028 1.27-.027 1.67.032 3.063-.058 3.982-.26.047-.077.651-.068.918-.119.132-.044.22-.095.26-.153-.389-.143-.83-.144-1.168-.144-.983.016-1.929.046-2.833.09-.84.043-1.77.055-2.765.034-.734-.019-1.361.011-2.102.003a27.415 27.415 0 0 1-1.24-.082c.47-.1 1.108-.162 1.87-.18.578-.06 1.3-.078 1.392-.234-.273-.112-.577-.113-.82-.102-.509 0-1 .007-1.47.021-.998.032-2.08.032-3.22.002-.601-.012-1.171-.009-1.7.01-1.201.024-2.352.079-3.451.104-2.252.026-4.306.118-6.47.166-.481.012-.913.054-1.547-.018-.635-.073-.663-.082-.738-.128-.178-.075-.232-.148-.15-.203.125-.052.37-.081.691-.082 1.935-.082 3.77-.198 5.493-.347a16.51 16.51 0 0 0 1.97-.18c.434-.061.95-.102 1.529-.12a87.287 87.287 0 0 1 2.633-.099 6.784 6.784 0 0 0 1.06-.097c.277-.053.462-.125.547-.211l-1.117-.288c-.176-.013-.35-.025-.522-.035l-9.273.207-.918.006c-1.006-.017-1.252-.06-2.207-.393 2.179-.078 3.892-.307 4.968-.662a17.06 17.06 0 0 0-.79-.098 65.419 65.419 0 0 0-4.874-.066c-.884.004-1.792-.007-2.704-.013.267-.164 1.288-.115 1.954-.152 1.591-.058 2.998-.177 4.175-.355.406-.069.914-.113 1.501-.13.587-.006 1.078-.048 1.429-.122.35-.074.552-.179.585-.304.056-.113.175-.218.356-.314-.32-.136-.83-.266-1.432-.366-.602-.1-1.256-.162-1.839-.176a76.48 76.48 0 0 1-3.837-.273c-.65-.063-1.286-.099-1.869-.106a13.43 13.43 0 0 1-1.663-.13 9.69 9.69 0 0 1-1.467-.305 70.462 70.462 0 0 1-1.497-.448c-.487-.15-1.053-.34-1.621-.524-.502-.028-.99-.047-1.459-.055-.364.007-.79-.013-1.226-.058a11.095 11.095 0 0 1-1.234-.193c.217-.08.462-.152.721-.245-.355-.123-.613-.249-.757-.37-.144-.12-.172-.233-.081-.33.052-.09-.334-.24-.467-.357-.172-.102-.204-.197-.093-.273.112-.075.362-.128.717-.152a5.35 5.35 0 0 0 1.062-.19c.087-.022.131-.052.129-.087-.003-.035-.052-.074-.143-.114a2.16 2.16 0 0 0-.378-.114 5.251 5.251 0 0 0-.523-.086c-.568-.06-1.132-.1-1.66-.116a114 114 0 0 0-2.61-.054 29.01 29.01 0 0 1-2.965-.2c-.916-.114-1.737-.215-2.184-.432-.448-.217-1.164-.21-1.714-.367.309-.143.858-.241 1.593-.287.48-.016.882-.059 1.178-.125.296-.066.48-.154.54-.26l-1.67-.44c-1.335-.206-2.073-.047-3.515-.13l1.486-.162c.03-.016.04-.035.033-.056-.144-.328-.374-.398-1.893-.58l-.852-.106-1.349-.125c-.216-.068-.365-.138-.433-.204-.068-.066-.052-.126.046-.173.198-.08.258-.18.175-.295-.131-.075-.142-.145-.03-.197.11-.051.336-.082.638-.086.24-.006.259-.093.39-.142.13-.069.353-.121.653-.154.3-.033.67-.045 1.086-.037a57.666 57.666 0 0 0 3.434-.076l-.19-.024c1.102.05 2.132.057 3.04.018.91-.048 2.077-.017 3.044-.047.787.007 1.386-.06 1.67-.187.275-.121 1.275-.093 2.04-.07.454.015.892.021 1.31.02a13.708 13.708 0 0 1 1.99.072c.218.023.433.036.623.036 1.846.031 3.688.068 5.508.085.42-.01.913.012 1.42.062.213.022.42.03.595.026 2.876-.05 6.121.077 8.94.008.343-.016.72-.02 1.125-.01.908.04 1.697.015 2.247-.074a7.73 7.73 0 0 1 1.116-.076c.44-.003.928.017 1.436.058.845.055 1.626.06 2.26.017 1.237-.04 2.538-.057 3.893-.05.415.008.78-.008 1.066-.045.286-.037.487-.094.585-.168-.333-.125-.696-.14-1.042-.129-1.338-.028-2.674-.062-3.987-.076a72.439 72.439 0 0 0-3.368-.035 11.726 11.726 0 0 1-1.834-.107 15.507 15.507 0 0 0-2.283-.152c-.5.003-1.028-.006-1.576-.028-.35-.026-.71-.07-1.042-.129a5.257 5.257 0 0 0-.845-.092 3.137 3.137 0 0 0-.358.008.86.86 0 0 0-.23.044c-.507.17-1.642.083-2.614.065-1.456-.288-2.54-.118-3.9-.28a3.916 3.916 0 0 0-.312-.02 2.207 2.207 0 0 0-.258.009c-2.633.098-5.703.016-8.467.05a8.926 8.926 0 0 1-1.022-.049c-2.37-.244-4.65-.313-6.391-.194-.212.01-.453.01-.713.001a32.516 32.516 0 0 0-3.322-.113c-1.554-.007-3.049-.001-4.628-.024-1.089-.032-2.044.003-2.77.1-.023.038-.506-.004-.876-.008-.213-.098-.398-.186-.618-.273-.196-.108-.49-.217-.862-.32a12.766 12.766 0 0 0-1.293-.276c-.82-.101-.902-.249-.328-.303 1.48-.18 3.342-.253 5.448-.215 1.76.003 3.552.01 5.337.028 1.042.015 2.14.05 3.153.056.341.013.692.033 1.05.058.437.037.862.057 1.252.06a50.824 50.824 0 0 1 4.12.08c.54.018 1.059.025 1.548.019a60.317 60.317 0 0 1 3.732.05c.82.031 1.615.048 2.377.05.269.003.488-.024.747-.004 2.281.211 3.896.059 5.95.14.997.022 1.95.023 2.846 0 1.747.001 3.543.024 5.38.07 2.43.073 4.682.048 7.002.078.458.007.9.006 1.324-.003 2.059-.057 4.295-.045 6.655.036.535.011 1.016-.003 1.413-.042.396-.04.7-.103.89-.186.081-.058.029-.132-.147-.21-.29-.098-.62-.195-.98-.288L52.74.584A59.183 59.183 0 0 0 51.13.558a178.99 178.99 0 0 1-4.735-.073c-1.601-.043-3.13-.036-4.682-.049a58.343 58.343 0 0 1-1.405-.03 312.77 312.77 0 0 0-9.452-.233C29.571.169 28.182.11 26.872.09 25.562.072 23.77.065 22.215.058l-4.813.001c-.946-.004-1.868.007-2.786.013-1.115-.407-1.499-.502-2.986-.68a13.772 13.772 0 0 0-1.492-.113C8.663-.69 6.81-.823 5.41-.805c-.845-.009-1.561.036-2.077.13-.447.075-.959.134-1.527.176C.25-.847.113-1.073 1.283-1.161c.318-.02.754-.014.983-.057.132-.027.311-.042.525-.045.213-.002.454.008.704.03.79.056 1.53.07 2.146.038.58-.041 1.29-.04 2.064.005.568.07 1.068-.029 1.56-.058.49-.028.894-.08 1.662-.003.14.016.28.025.408.027.127.003.24-.002.33-.013a25.34 25.34 0 0 1 2.87.015c1.631.059 3.161.061 4.538.007.823-.048 1.526-.132 2.08-.25.15-.04.374-.063.65-.069 1.385.025 2.888.117 4.414.272a55.963 55.963 0 0 0 5.021.276c1.517 0 3.097.03 4.725.09 1.005.032 1.973.044 2.893.035.946-.004 1.956.02 3.006.074 1.045.043 1.966.018 2.652-.072a2.44 2.44 0 0 0 .543-.172c-1.53-.213-3.113-.322-4.43-.303-.5-.015-.914 0-1.441-.083l-.017.027a2.133 2.133 0 0 1-.444.012 3.951 3.951 0 0 1-.539-.068l.165-.278c1.003.013 1.977.012 2.916-.003.792-.021 1.867.166 2.553.095 1.337.088 2.189-.033 3.388.002 1.2.035 2.52.15 3.719.186 1.046.019 2.063.023 3.042.012a11.87 11.87 0 0 1 1.146.01 12.02 12.02 0 0 0 1.576.021c.443-.029.764-.092.926-.182-.153-.085-.36-.194-.597-.307.438-.093 1.102-.132 1.896-.112l1.12-.004c.298.002.525-.023.635-.07.11-.048.095-.114-.042-.185-2.126-.36-2.204-.399-3.764-.168l-2.072-.107.035-.002Zm28.017.986-.158-.02.158.02Zm258.133 38.175-.036.061.039-.066.347.043.023-.04-.373.002ZM290.557 9.8c-.49-.067-.986-.128-1.483-.184a3.218 3.218 0 0 0-.356-.005.97.97 0 0 0-.237.034c-.04.066.238.113.49.144.319.042.644.069.943.077.299.01.56 0 .757-.028l.285-.024-.399-.014ZM37.737 26.071c.324.011.63.013.912.006 1.252-.054 2.45-.133 3.734-.183 1.62-.127 3.48-.179 5.513-.153.794.012 1.465-.029 1.934-.119a7.18 7.18 0 0 1 1.066-.083l5.374-.147c.332-.03.619-.073.854-.127l-.978-.12a5.8 5.8 0 0 0-.98.051c-.267.069-.719.096-1.265.076a59.24 59.24 0 0 0-1.611-.026c-.985.003-1.976.018-2.964.027-.385.191-1.52.104-2.491.085l-.75.01c-2.454.098-4.798.235-7.02.408-.43.029-.8.076-1.099.138-.113.05-.149.11-.105.178l-.158-.02h.034ZM147.302 44.36c.596.013 1.215.04 1.851.08.489.04.967.065 1.413.073 2.503.043 5.111.142 7.789.296.35.023.686.035.996.034l2.192-.04c.691-.021.704-.044.201-.339-.417-.057-.839-.11-1.263-.156-.252-.031-.663-.082-.759-.034-.585.13-1.654.046-2.552.018-2.601-.071-5.283-.177-7.909-.263a42.709 42.709 0 0 0-1.608-.032 9.1 9.1 0 0 0-.862.025 1.032 1.032 0 0 0-.18.018c-.045.01-.074.023-.083.039-.01.015 0 .033.029.052a.534.534 0 0 0 .135.058c.215.065.463.128.737.186l-.127-.015Zm19.054-42.842 2.562-.035c.307-.004.568-.043.897-.026 1.754.053 3.379.038 4.804-.044.485-.034 1.053-.04 1.672-.02 1.896.06 3.684.063 5.316.007a49.784 49.784 0 0 0 2.947-.112c.07-.015.113-.035.128-.06.014-.023-.001-.05-.045-.08-.012-.018-.043-.037-.091-.057a1.291 1.291 0 0 0-.19-.056 3.364 3.364 0 0 0-.526-.07 30.6 30.6 0 0 0-3.167-.088c-.87.035-1.807.045-2.796.03-.947-.004-1.589.108-2.759.023-.494-.028-.931-.019-1.235.026-.613.075-1.468.079-2.413.012a22.883 22.883 0 0 0-1.601-.043c-1.201.024-2.348.073-3.46.12-.351.012-.727.013-1.121.005l-5.571-.093c-1.338-.028-2.674-.062-3.987-.076a37.603 37.603 0 0 0-2.965.028c-.949.049-1.983.069-3.085.06-1.71.026-3.411.037-5.273.033-1.187.002-2.403-.005-3.643-.027-.628-.029-1.161-.006-1.496.065-.204.059-.684.011-1.083-.002-2.126-.13-4.12-.162-5.843-.091-.22.012-.461.016-.719.012-1.659-.002-3.378-.018-4.97-.018-.42.006-.814.02-1.179.045.039.04.15.083.311.121.161.038.358.067.552.082 1.506.111 2.96.17 4.302.174a182.12 182.12 0 0 1 6.992.096c1.878.078 3.59.062 5.01-.049 1.109-.082 2.553-.051 4.082.088.654.066 1.29.093 1.819.076a18.292 18.292 0 0 1 1.719.016c1.318.062 2.586.09 3.778.085 1.166-.022 2.253-.085 3.451-.104 1.197-.019 3.02-.008 4.497-.04a115.11 115.11 0 0 1 4.379-.013ZM60.183-1.737c.135.172.614.279 1.129.325 1.775.203 3.53.29 4.971.245.778-.062 1.815-.038 2.908.068 1.272.11 2.462.128 3.358.051a1.72 1.72 0 0 0 .49-.082l.063-.106a2.956 2.956 0 0 0-.338-.076 4.69 4.69 0 0 0-.4-.051l-5.882-.197-1.025-.043a70.206 70.206 0 0 0-5.274-.134ZM71.75.986c.918.28.921.275 1.391.34 2.27.266 4.536.41 6.532.414.444-.001.82-.028 1.098-.08.142-.006.233-.028.252-.06.02-.033-.035-.073-.15-.112l-.73-.198a154.147 154.147 0 0 0-3.912-.203c-1.49-.06-2.81-.062-4.355-.086l-.126-.015Zm75.44 42.129c.856.386.859.38 2.291.48.998.071 1.966.113 2.875.124 1.111.012 2.25.034 3.358.051.271.013.5.003.643-.028.144-.031.191-.08.134-.138a3.169 3.169 0 0 0-.646-.173 6.883 6.883 0 0 0-.855-.097l-.605-.009c-.734-.019-1.496-.048-2.205-.052-.46.016-.993.004-1.558-.036a19.943 19.943 0 0 1-1.695-.194l-1.737.072ZM76.318-1.232c.229.067.487.131.768.19a23 23 0 0 0 3.233.264c.468.01.897-.026 1.374.027.855.07 1.684.108 2.442.111l.282-.019.145-.245a16.946 16.946 0 0 0-1.105-.136c-1.25-.065-2.477-.11-3.701-.16-1.224-.05-1.651-.073-2.451-.095-.358.012-.688.033-.987.063Zm-27.05 30.433 1.635.501a9.365 9.365 0 0 0 1.407.023c.384-.03.637-.093.72-.183.136-.042.149-.104.038-.174-.11-.069-.336-.14-.63-.198-.283-.069-.606-.13-.949-.181-.343-.051-.698-.09-1.045-.114l-1.176.326Zm13.61-2.495a30.638 30.638 0 0 0-2.99-.101c-.565.05-1.332.034-2.142-.044-1.473-.156-2.894-.2-3.961-.12 0 0-.04.066-.22.085-.182.02.536.067.694.086 1.157.048 2.322.085 3.328.102.625 0 1.286.015 1.972.047.943.05 1.838.066 2.649.048 0 0 .314-.015.667-.097l.003-.006ZM177.06.61a19.021 19.021 0 0 0-3.207-.307c-.374-.005-.677.02-.86.07-.184.051-.238.125-.153.21l1.168.145c.985-.003 1.825-.049 3.052-.118Zm95.594 7.952a12.49 12.49 0 0 0-1.302-.167 9.362 9.362 0 0 0-1.195-.023c-.174.009-.056.095-.085.145-.02.011-.02.025 0 .04.02.016.059.032.112.048a2.18 2.18 0 0 0 .41.06c.444.033.864.043 1.221.029.357-.014.641-.052.826-.11l.013-.022Zm6.405 1.086c-.063-.045-.198-.091-.38-.132a4.477 4.477 0 0 0-.609-.086c-.373-.002-.712.01-1.005.037-.317.02-.088.15.34.227.182.03.376.055.567.07.191.016.374.022.534.019a2.05 2.05 0 0 0 .387-.038c.095-.022.15-.05.16-.086l.006-.011ZM92.946-.755c-.956-.16-1.692-.12-2.5-.184-.81-.065-1.009-.071-.9.032.108.103.662.082 1.01.125.469.057.941.09 1.363.094.422.005.778-.018 1.027-.067ZM292.07 26.344a36.437 36.437 0 0 0-1.48-.076c-.063.015-.103.034-.116.057-.014.023-.001.05.037.076 0 0 .324.082.513.106.698.08.732-.035 1.046-.163Zm71.537 14.921c.343.108.503.182.777.234.126.018.256.031.381.038.125.007.241.008.34.004.12-.032.149-.08.079-.134 0 0-.349-.097-.482-.102a22.158 22.158 0 0 0-1.095-.04ZM76.68-1.67c-.726-.09-1.42-.176-1.923-.07 1.153.112 1.153.112 1.923.07ZM88.44-.644c-.733-.192-1.163-.21-1.515-.188-.075.006-.124.018-.14.036-.017.017 0 .038.048.06.048.023.124.044.218.062.093.018.199.032.3.038.383.006.747.003 1.09-.008Zm37.737.081c.016-.028.036-.06-.153-.084a1.582 1.582 0 0 0-.348-.043l-.032.055.533.072Zm26.205 46.184-.422.025.19.024.5.014-.268-.063ZM300.868 9.213c-.158-.02-.316-.04-.339 0-.033.006-.054.015-.06.025-.007.01.002.023.024.036 0 0 .221.027.315.04l.06-.101Zm-24.584.311c-.104-.002-.197 0-.275.008l-.02.033.316.04-.021-.08Zm-214.24 7.954a4.802 4.802 0 0 0-.378-.047l-.158-.02s.17.057.264.07c.095.011.171-.004.272-.003Z"/></symbol></defs></svg>