<svg aria-hidden="true" style="position: absolute; width: 0; height: 0; overflow: hidden;" version="1.1" xmlns="http://www.w3.org/2000/svg" xmlns:xlink="http://www.w3.org/1999/xlink">
<defs>
<symbol id="icon-burger" viewBox="0 0 32 32">
<path d="M4 5.333h24v2.667h-24v-2.667zM4 14.667h24v2.667h-24v-2.667zM4 24h24v2.667h-24v-2.667z"></path>
</symbol>
<symbol id="icon-email" width="26" height="18" viewBox="0 0 26 18">
<path d="M4.95239 6L11.8628 10.1861C12.1813 10.3791 12.5806 10.3791 12.8991 10.1861L19.8095 6"/>
<rect width="25" height="17" rx="4.5"/>
</symbol>
<symbol id="icon-player" viewBox="0 0 30 32">
<path d="M29.538 16l-27.692 15.988v-31.976l27.692 15.988z"></path>
</symbol>
<symbol id="icon-send" viewBox="0 0 33 32">
<path fill="#fff" style="fill: var(--color2, #fff)" d="M27.353 9.448c0.503 0.871 0.435 1.908-0.177 2.706l-13.435 17.532c-0.554 0.723-1.466 1.092-2.399 0.913-0.914-0.176-1.638-0.842-1.889-1.737l-2.195-7.811-5.667-5.807c-0.65-0.666-0.865-1.626-0.56-2.505 0.301-0.869 1.058-1.499 1.99-1.622l21.901-2.869c0.997-0.131 1.929 0.329 2.432 1.2z"></path>
<path fill="#fff" style="fill: var(--color2, #fff)" d="M7.464 21.786l1.988 7.075c0.251 0.896 0.976 1.562 1.889 1.737 0.933 0.179 1.845-0.19 2.399-0.913l13.436-17.532c0.612-0.798 0.679-1.835 0.177-2.706l-20.096 11.602 0.207 0.736z"></path>
<path fill="#000" style="fill: var(--color3, #000)" d="M15.435 16.328c0.204 0.354 0.083 0.807-0.271 1.012l-7.699 4.445-0.207-0.736-0.534-0.547 7.699-4.445c0.355-0.205 0.808-0.083 1.012 0.271z"></path>
<path fill="#000" style="fill: var(--color3, #000)" d="M7.465 21.786l7.699-4.445c0.355-0.205 0.476-0.658 0.271-1.012l-8.178 4.721 0.207 0.736z"></path>
</symbol>
<symbol id="icon-arrow" viewBox="0 0 10 7">
<path d="M0.742798 1L5.16137 5.5L9.57995 1" fill="none"/>
</symbol>
<symbol id="icon-close" viewBox="0 0 128 128">
<path d="M 64 6 C 48.5 6 33.9 12 23 23 C 12 33.9 6 48.5 6 64 C 6 79.5 12 94.1 23 105 C 34 116 48.5 122 64 122 C 79.5 122 94.1 116 105 105 C 116 94 122 79.5 122 64 C 122 48.5 116 33.9 105 23 C 94.1 12 79.5 6 64 6 z M 64 12 C 77.9 12 90.900781 17.399219 100.80078 27.199219 C 110.70078 36.999219 116 50.1 116 64 C 116 77.9 110.60078 90.900781 100.80078 100.80078 C 90.900781 110.60078 77.9 116 64 116 C 50.1 116 37.099219 110.60078 27.199219 100.80078 C 17.299219 91.000781 12 77.9 12 64 C 12 50.1 17.399219 37.099219 27.199219 27.199219 C 36.999219 17.299219 50.1 12 64 12 z M 50.5625 47.5 C 49.8 47.5 49.05 47.800391 48.5 48.400391 C 47.3 49.600391 47.3 51.499609 48.5 52.599609 L 59.800781 64 L 48.400391 75.300781 C 47.200391 76.500781 47.200391 78.4 48.400391 79.5 C 49.000391 80.1 49.8 80.400391 50.5 80.400391 C 51.2 80.400391 51.999609 80.1 52.599609 79.5 L 64 68.199219 L 75.300781 79.5 C 75.900781 80.1 76.700391 80.400391 77.400391 80.400391 C 78.100391 80.400391 78.9 80.1 79.5 79.5 C 80.7 78.3 80.7 76.400781 79.5 75.300781 L 68.199219 64 L 79.5 52.699219 C 80.7 51.499219 80.699609 49.600391 79.599609 48.400391 C 78.399609 47.200391 76.500391 47.200391 75.400391 48.400391 L 64 59.800781 L 52.699219 48.400391 C 52.099219 47.800391 51.325 47.5 50.5625 47.5 z"/>
</symbol>
<symbol id="icon-burger" width="32" height="32" viewBox="0 0 32 32">
<path d="M4 5.333h24v2.667h-24v-2.667zM4 14.667h24v2.667h-24v-2.667zM4 24h24v2.667h-24v-2.667z"></path>
</symbol>
<symbol id="icon-paperplane"  width="35" height="31" viewBox="0 0 35 31">
<path d="M34.9396 15.6827C34.9396 17.0653 34.1464 18.2538 32.869 18.7835L4.81666 30.4239C3.65979 30.9039 2.31997 30.7156 1.33219 29.861C0.365122 29.0237 -0.0396057 27.7327 0.276843 26.4933L2.77387 16.7013L3.03327 15.6827L2.77387 14.664L0.276843 4.87208C-0.0396057 3.6327 0.365122 2.34172 1.33219 1.50442C2.2886 0.676968 3.6225 0.446015 4.81666 0.941467L32.869 12.5819C34.1464 13.1116 34.9396 14.3001 34.9396 15.6827Z" fill="white"/>
<path d="M2.77393 16.7013L0.276843 26.4933C-0.0396057 27.7326 0.365122 29.0236 1.33219 29.8609C2.31997 30.7156 3.65979 30.9039 4.81666 30.4239L32.869 18.7834C34.1464 18.2537 34.9396 17.0653 34.9396 15.6826L3.03334 15.6826L2.77393 16.7013Z" fill="white"/>
<path d="M16.0172 15.6827C16.0172 16.245 15.5615 16.7014 14.9985 16.7014H2.77399L3.03339 15.6827L2.77399 14.6641H14.9985C15.5614 14.6641 16.0172 15.1205 16.0172 15.6827Z" fill="#747DEF"/>
<path d="M2.77399 16.7013H14.9985C15.5614 16.7013 16.0172 16.245 16.0172 15.6826H3.03339L2.77399 16.7013Z" fill="#747DEF"/>
</symbol>
</symbol>
<symbol id="icon-decoration" width="376" height="12" viewBox="0 0 376 12">
<path d="M54.8282 -2.53772L55.7692 -2.69589L53.9381 -2.92267L54.8159 -3.08867C55.696 -3.08715 56.8364 -2.83842 57.4569 -2.97058C57.5328 -3.09855 56.5744 -3.13961 56.3298 -3.24157C56.1134 -3.34607 55.9368 -3.44988 55.802 -3.55178C56.2814 -3.55068 56.8083 -3.52603 57.3517 -3.47929C58.0825 -3.40294 58.7993 -3.36583 59.4231 -3.37204C60.6986 -3.35142 61.9308 -3.37199 63.3175 -3.36746L62.8561 -3.67542L64.6433 -3.60338C64.8327 -3.57992 65.0585 -3.61765 65.2446 -3.58862C66.7934 -3.34305 67.4488 -3.47687 68.1923 -3.58783C68.3448 -3.61654 68.5284 -3.63798 68.7384 -3.65158C70.8045 -3.59275 72.6677 -3.24853 74.5284 -3.07182C74.8786 -3.02671 75.2145 -2.96879 75.5123 -2.90219C76.1595 -2.77271 76.8794 -2.667 77.6061 -2.59472C78.3329 -2.52244 79.0433 -2.48592 79.6724 -2.48847C81.0636 -2.49133 82.6353 -2.40569 84.2355 -2.23983C84.7113 -2.1852 85.1875 -2.14917 85.6336 -2.13402C86.0797 -2.11886 86.4861 -2.12492 86.8265 -2.15183L87.9084 -1.97603C88.3774 -2.04736 88.972 -2.0865 89.6563 -2.09107C90.3405 -2.09563 91.1001 -2.06553 91.8889 -2.00259C92.7295 -1.93431 93.5834 -1.88828 94.4555 -1.81609C96.2571 -1.67808 98.0105 -1.59368 99.6612 -1.5655C102.119 -1.48201 104.521 -1.41746 107.001 -1.31336C108.552 -1.26312 110.064 -1.23548 111.527 -1.2306C113.279 -1.21095 115.174 -1.11581 117.121 -0.949774C117.029 -0.793995 116.175 -0.840017 115.602 -0.845289C113.754 -0.871181 111.862 -0.938275 109.96 -0.988677C109.103 -1.00835 108.27 -1.0158 107.466 -1.01098C106.12 -1.01744 104.702 -1.05894 103.235 -1.13479C100.918 -1.21825 98.675 -1.25837 96.5288 -1.25474C96.3606 -1.24857 96.2064 -1.23764 96.0689 -1.22212C96.0403 -1.20868 96.0346 -1.19173 96.0525 -1.17291C96.0704 -1.15408 96.1113 -1.134 96.1712 -1.11459C96.2311 -1.09519 96.308 -1.0771 96.3947 -1.06207C96.4813 -1.04703 96.5748 -1.03555 96.666 -1.02873C97.5184 -0.923156 98.4339 -0.809769 99.2378 -0.793819C99.2688 -0.792625 99.302 -0.789904 99.3347 -0.785846C99.3675 -0.781789 99.3991 -0.776497 99.4272 -0.770359C101.227 -0.547486 102.706 -0.585201 104.108 -0.54894C106.435 -0.45094 108.679 -0.405164 110.805 -0.412303C111.126 -0.411818 111.473 -0.399078 111.833 -0.374545C114.059 -0.275095 116.141 -0.263972 117.981 -0.341679C118.738 -0.361367 119.442 -0.405561 120.255 -0.4063C120.757 -0.409341 121.193 -0.437544 121.538 -0.489219C121.883 -0.540895 122.13 -0.614974 122.264 -0.707002C122.607 -0.65855 122.956 -0.615369 123.305 -0.577976C123.514 -0.556595 123.715 -0.550915 123.866 -0.562104C124.017 -0.573292 124.108 -0.600512 124.121 -0.638257C124.183 -0.743965 123.706 -0.79705 123.293 -0.842317C123.542 -0.864987 123.823 -0.878324 124.129 -0.882006C125.853 -0.90616 127.703 -0.877652 129.637 -0.797108C131.138 -0.700698 132.337 -0.779169 133.917 -0.643212C134.106 -0.619752 134.262 -0.654186 134.437 -0.662454C134.891 -0.705992 135.458 -0.715778 136.087 -0.690956C136.716 -0.666132 137.388 -0.607451 138.046 -0.520001C138.865 -0.758922 140.635 -0.485975 141.942 -0.461444C142.345 -0.33994 141.883 -0.361301 141.863 -0.32792C141.843 -0.294538 141.863 -0.327927 141.705 -0.347478C140.4 -0.175408 138.612 -0.137888 136.592 -0.240191C136.219 -0.239765 135.863 -0.231926 135.528 -0.216749C135.021 -0.195266 134.449 -0.197411 133.837 -0.22309C133.169 -0.241949 132.556 -0.232992 132.026 -0.196652C131.721 -0.197244 131.463 -0.179038 131.276 -0.143713C131.09 -0.108387 130.98 -0.0570843 130.957 0.00542437C131.161 0.0536146 131.386 0.0977087 131.625 0.135957C132.873 0.286974 134.118 0.349484 135.114 0.311188C136.847 0.245203 138.91 0.309593 140.753 0.287068C141.999 0.277942 143.325 0.303935 144.706 0.364564C144.706 0.364564 144.67 0.425763 144.666 0.431326C144.83 0.457824 145.001 0.479083 145.172 0.493888C145.172 0.493888 145.172 0.493889 145.188 0.466071C145.112 0.439356 145.01 0.414226 144.892 0.393588L144.482 0.342756C144.761 0.329528 145.021 0.290143 145.312 0.314206C145.924 0.358912 146.51 0.377786 147.033 0.369706C147.556 0.361626 148.006 0.326752 148.356 0.267183C148.976 0.190835 149.747 0.156116 150.619 0.165266C151.287 0.15693 151.931 0.139017 152.548 0.111612C152.548 0.111612 152.588 0.0448553 152.88 0.00937295C152.603 -0.034389 152.315 -0.070125 152.028 -0.0961941C150.779 -0.161323 149.526 -0.220889 148.299 -0.265416C147.847 -0.270227 147.421 -0.262766 147.032 -0.24318C145.952 -0.220261 144.738 -0.25279 143.462 -0.338871C143.462 -0.338871 143.21 -0.370149 143.084 -0.385789C143.442 -0.532543 144.676 -0.385625 145.176 -0.48501C145.479 -0.483202 146.014 -0.470704 145.996 -0.496869C145.954 -0.531782 145.949 -0.564219 145.981 -0.591847C146.013 -0.619476 146.082 -0.641617 146.181 -0.656677C146.281 -0.671739 146.409 -0.679352 146.558 -0.678966C146.706 -0.678578 146.87 -0.670198 147.038 -0.654438C148.443 -0.569174 149.767 -0.545462 150.928 -0.584757C151.368 -0.583999 151.861 -0.558728 152.298 -0.552406C152.565 -0.54479 152.809 -0.549025 153.017 -0.564877C154.072 -0.681619 155.492 -0.690145 157.064 -0.589174C157.824 -0.552871 158.533 -0.548018 159.157 -0.574859C159.6 -0.579662 159.788 -0.496663 160.104 -0.457562L161.444 -0.375138L159.723 -0.271858C160.091 -0.0351733 160.383 0.0428688 160.984 0.0576145C161.862 0.0798814 162.716 0.0899411 163.542 0.0877312C164.153 0.0857855 164.658 0.0348151 165.485 0.125348C165.631 0.140115 165.772 0.144893 165.884 0.138886C166.853 0.0585099 168.02 0.0400638 169.305 0.0848069C169.97 -0.0657016 171.103 0.0806318 172.152 0.198536C172.49 0.0851636 171.877 0.0331218 171.511 -0.0360536C172.388 -0.0289721 173.271 -0.0330161 174.177 -0.016462C174.449 -0.0224874 174.76 -0.0121788 175.086 0.0136548C175.412 0.0394873 175.743 0.0801366 176.054 0.132426C176.205 0.166213 176.388 0.191641 176.564 0.203432C176.74 0.215221 176.896 0.212471 176.999 0.19575C177.469 0.146436 178.221 0.191857 178.61 0.108557C178.748 0.0894004 178.945 0.086726 179.166 0.101003C179.387 0.115278 179.618 0.14558 179.817 0.186477C179.599 0.199237 179.405 0.21933 179.24 0.246314C178.645 0.333969 178.864 0.480432 179.619 0.693363C180.778 0.681653 181.962 0.684978 183.036 0.644847C183.635 0.608823 184.369 0.620084 185.155 0.677369C185.941 0.734651 186.748 0.835686 187.486 0.969108C187.753 1.02041 188.058 1.05595 188.339 1.06866C188.62 1.08136 188.858 1.07031 189.005 1.03769C189.096 0.999971 189.124 0.952228 189.087 0.898605L188.329 0.80477C188.329 0.80477 188.359 0.754697 188.366 0.74357L189.455 0.735157C190.031 0.734864 190.632 0.749615 191.177 0.745412C191.977 0.717468 192.891 0.733043 193.861 0.791172C194.756 0.850779 195.636 0.895833 196.492 0.925939C197.321 0.956926 197.922 0.858139 198.71 0.842362C199.307 0.83047 199.963 0.843179 200.654 0.87999C201.847 0.945279 202.942 0.945401 203.839 0.880342C204.885 1.23086 205.393 1.28786 206.364 1.19314L206.821 1.16608L206.946 1.24126L207.295 1.22473C207.947 1.21001 208.6 1.19529 209.281 1.19004C210.227 1.22257 211.25 1.31008 212.248 1.44405C212.437 1.4675 212.695 1.54721 212.861 1.60962C213.028 1.67202 213.39 1.86028 213.657 1.98284C213.366 2.0723 213.045 2.15785 212.814 2.2607C212.791 2.27827 212.793 2.29922 212.821 2.32187C212.848 2.34452 212.9 2.36824 212.972 2.39111C213.045 2.41399 213.135 2.43538 213.236 2.45358C213.338 2.47177 213.447 2.48627 213.556 2.49589C213.768 2.51663 213.978 2.53046 214.176 2.5368C215.151 2.54774 216.085 2.53961 216.969 2.51249C217.291 2.47422 217.733 2.47059 218.224 2.50216C218.715 2.53374 219.226 2.59872 219.678 2.6868C220.834 2.63392 222.178 2.64954 223.616 2.73258C225.137 2.68208 226.974 2.7842 228.395 2.67356C228.362 2.72919 228.509 2.82498 228.713 2.88017C229.037 2.96399 229.403 3.04168 229.797 3.10994L232.802 3.24321C232.914 3.31174 233.054 3.38111 233.221 3.45043C233.335 3.50518 233.534 3.55875 233.775 3.59979C234.017 3.64084 234.282 3.66613 234.514 3.67029C235.112 3.6906 235.613 3.64519 236.326 3.75738C235.228 3.86342 233.747 3.84934 232.148 3.71762C230.645 3.61745 229.199 3.56738 227.864 3.56929C227.424 3.56853 226.844 3.57438 226.707 3.63497C226.402 3.80624 225.605 3.77916 224.675 3.74757C223.944 3.71299 223.277 3.71687 222.727 3.7589C222.178 3.80092 221.763 3.87989 221.515 3.98931C221.453 4.09502 221.603 4.18524 222.244 4.24675L224.91 4.4934C225.304 4.46169 225.676 4.42416 226.028 4.38095C226.619 4.32356 227.35 4.30781 228.163 4.33492C228.975 4.36202 229.848 4.43127 230.713 4.53725C231.155 4.59199 231.597 4.64673 231.918 4.62072C232.199 4.59085 232.458 4.55507 232.693 4.51367C232.74 4.48593 232.759 4.45399 232.749 4.41909C232.919 4.43532 233.089 4.45641 233.254 4.48165C234.57 4.77609 235.59 4.771 236.516 4.69462C236.767 4.67192 236.958 4.63584 237.212 4.60757C237.466 4.57931 237.555 4.54262 237.786 4.5533C239.627 4.64987 240.157 4.32733 241.708 4.34029C241.783 4.32769 241.83 4.30885 241.844 4.28552C241.858 4.26218 241.838 4.2351 241.787 4.20676C241.677 4.18118 241.551 4.15917 241.418 4.14277C241.286 4.12637 241.152 4.11611 241.029 4.11292C240.315 4.07154 239.685 4.08422 239.246 4.14883C238.935 4.17523 238.605 4.19626 238.26 4.21182L236.706 3.74475C238.211 3.78756 239.634 3.78728 240.943 3.74391C241.228 3.71955 241.712 3.76152 242.114 3.76949L245.07 3.81315C245.678 3.81677 246.196 3.74355 247.043 3.91423C247.043 3.91423 247.603 3.94175 247.752 3.91845C247.902 3.89514 248.564 3.7502 248.959 3.65577C249.417 3.68269 250.052 3.75534 250.337 3.73098C250.836 3.67116 251.268 3.59447 251.625 3.50229L253.411 3.63389C253.409 3.75078 253.344 3.86076 253.216 3.96214C253.077 4.0599 253.082 4.17726 253.23 4.30462C253.379 4.43197 253.666 4.5657 254.07 4.69489L255.833 5.3791C256.121 5.42492 256.428 5.45576 256.712 5.46744C256.996 5.47912 257.243 5.47106 257.421 5.44438C258.18 5.36514 259.03 5.30321 259.788 5.22397C260.767 5.34518 260.515 5.54096 261.227 5.71269L263.531 5.99812C263.883 6.26262 264.241 6.516 263.172 6.60455C262.959 6.62003 263.103 6.72139 262.909 6.76304C263.74 6.96153 264.654 7.02095 265.496 7.14321C265.828 7.23114 266.106 7.32421 266.316 7.41794C266.546 7.55906 267.014 7.70322 267.617 7.81928C268.22 7.93534 268.911 8.014 269.54 8.03825C270.596 8.11256 271.676 8.22416 272.734 8.36806C273.095 8.4181 273.466 8.45456 273.822 8.47497C274.178 8.49539 274.511 8.4993 274.798 8.48643C275.821 8.46378 276.687 8.38586 277.34 8.25776C277.985 8.14905 278.855 8.09666 279.87 8.10533C281.606 8.32038 281.957 8.64443 283.007 8.92985L281.192 8.96185C281.127 9.07312 281.247 9.21341 280.503 9.21084C279.759 9.20828 280.136 9.31474 280.377 9.42226C280.462 9.47634 280.628 9.53198 280.847 9.57974C281.066 9.62751 281.324 9.66446 281.578 9.68436L283.123 9.82198C283.671 9.87435 284.201 9.89671 284.655 9.88662C285.109 9.87652 285.47 9.83435 285.698 9.76473C285.96 9.69863 286.321 9.65391 286.759 9.63333C287.317 9.5794 287.776 9.4992 288.119 9.39576L290.301 9.54647C290.393 9.44252 290.693 9.36964 291.149 9.34014C291.605 9.31064 292.189 9.32632 292.803 9.38456L294.273 9.47706C295.907 9.57799 296.266 9.54476 296.744 9.2517L294.784 8.72824C295.069 8.59035 295.344 8.46916 295.62 8.34797C295.131 8.17551 294.48 8.01239 293.731 7.87518C293.032 7.72775 292.314 7.58496 291.579 7.44736C290.781 7.30675 289.938 7.18449 288.948 7.02599C288.775 6.97471 288.524 6.88388 288.203 6.79636C287.882 6.71131 287.547 6.62795 287.199 6.54659C287.265 6.43531 287.324 6.33517 287.197 6.206C287.807 6.24722 288.437 6.3193 289.031 6.41576C289.625 6.51221 290.163 6.63 290.597 6.75851C290.67 6.7813 290.76 6.8027 290.86 6.82128C290.96 6.83986 291.068 6.85517 291.177 6.86618C292.249 6.94514 292.761 7.1101 293.285 7.31235C293.638 7.41574 294.093 7.50755 294.587 7.57506C295.534 7.69236 296.461 7.84305 297.367 7.97313C297.644 8.01647 297.932 8.05216 298.219 8.0787C299.166 8.16309 300.118 8.28109 301.029 8.4267C301.326 8.4637 301.611 8.51268 301.86 8.56953C302.11 8.62637 302.316 8.68944 302.462 8.75346C302.236 8.8236 302.115 8.91215 302.104 9.01374C302.065 9.08051 302.729 9.2166 303.044 9.31525C303.358 9.4139 302.742 9.36742 302.533 9.37734C301.674 9.39642 301.515 9.43642 302.029 9.65536C302.201 9.72421 302.315 9.79309 302.364 9.85773C302.413 9.92237 302.396 9.9814 302.315 10.0311C302.193 10.237 301.821 10.406 301.566 10.6073C301.962 10.74 302.624 10.8816 302.696 11.0458C302.731 11.0822 302.804 11.1208 302.91 11.1588C303.017 11.1968 303.154 11.2332 303.311 11.2654C303.727 11.3349 304.105 11.418 304.416 11.5082C304.726 11.5985 304.962 11.6936 305.104 11.786C305.15 11.8242 305.262 11.8647 305.418 11.8995C305.573 11.9343 305.76 11.9606 305.942 11.9733C306.158 11.989 306.352 11.9869 306.484 11.9676C306.615 11.9483 306.673 11.9132 306.647 11.8696C306.652 11.7877 306.624 11.7023 306.561 11.6141C306.597 11.5529 306.634 11.4917 306.49 11.3904C307.137 11.4274 307.817 11.5015 308.455 11.6047C309.093 11.7079 309.664 11.8363 310.108 11.9758C310.599 12.1202 311.051 12.2718 311.595 12.4406C311.483 12.6298 311.483 12.6298 312.64 12.9642L318.779 13.1273L320.037 13.3488C321.21 13.5419 321.489 13.5287 322.226 13.4289L322.722 13.335C323.764 13.4641 324.964 13.6126 325.615 13.3709C325.827 13.5285 325.965 13.5814 325.917 13.6053C325.606 13.8379 325.065 14.0352 324.317 14.1895C324.126 14.2255 323.992 14.2806 323.769 14.3127C323.052 14.4943 322.886 14.775 323.304 15.0972C323.512 15.2398 323.814 15.3858 324.2 15.5306C323.635 15.7314 322.886 15.8979 321.975 16.0254C321.201 16.1241 320.564 16.2562 320.082 16.418C319.649 16.5811 319 16.7037 318.173 16.7788C317.754 16.8108 317.448 16.8737 317.286 16.9615C317.238 17.1991 317.349 17.4536 317.616 17.7191C317.667 17.7999 317.81 17.8872 318.035 17.9741C318.26 18.061 318.56 18.1451 318.912 18.22C318.912 18.22 319.082 18.2768 319.163 18.3108C319.231 18.5985 318.977 18.8521 318.418 19.0545C318.326 19.1119 318.138 19.1534 317.875 19.1745C317.612 19.1955 317.283 19.1954 316.923 19.174C316.164 19.1397 315.455 19.1355 314.721 19.1163C313.93 19.089 313.233 19.1105 312.704 19.1784C312.175 19.2463 311.833 19.3582 311.714 19.5022C311.706 19.543 311.683 19.582 311.644 19.619C311.622 19.6381 311.61 19.6586 311.608 19.6802L313.294 20.1518L311.387 20.3396C311.275 20.5287 312.19 20.6421 312.649 20.7826L312.365 20.8609C312 20.9053 311.508 20.8205 311.063 20.7713L310.621 20.7165L310.568 20.8056C310.293 20.9268 309.29 20.7905 308.898 20.8794C308.507 20.9682 308.786 21.0685 309.373 21.1651C309.78 21.2368 310.218 21.2941 310.653 21.3324C311.088 21.3708 311.509 21.3893 311.885 21.3866C312.108 21.3771 312.294 21.3554 312.431 21.3229C313.222 21.1842 314.097 21.0651 315.048 20.9662C315.777 20.8775 316.69 20.8397 317.723 20.8556C318.026 20.8489 318.391 20.8699 318.755 20.915C319.119 20.96 319.458 21.0262 319.712 21.1019L320.247 21.1144C320.247 21.1144 320.539 21.1925 320.498 21.2052C320.294 21.4365 320.531 21.7191 321.172 22.0114L320.614 22.0378C319.817 22.0108 320.323 22.1868 320.203 22.2736C319.637 22.2572 318.901 22.184 318.633 22.294L318.231 22.2861L318.388 22.3056L318.579 22.2695L319.329 22.434C318.974 22.4617 318.716 22.4955 318.403 22.5104C318.229 22.5234 318.091 22.5462 317.997 22.5776C317.903 22.6091 317.854 22.6484 317.854 22.6932C317.855 22.7623 317.761 22.8204 317.582 22.862C317.403 22.9036 317.145 22.9273 316.832 22.931C316.458 22.9325 316.244 23.0075 316.025 23.0341L316.977 23.4864C316.977 23.4864 316.503 23.4278 316.761 23.5075L316.794 23.4518L317.371 23.5651C317.787 23.6643 318.077 23.6884 318.323 23.6173C318.568 23.5461 318.512 23.6407 318.63 23.6135C318.587 23.6858 318.32 23.7364 318.091 23.7797C317.826 23.8137 317.527 23.8387 317.199 23.8544C317.79 24.1724 317.819 24.1819 316.955 24.2661C316.092 24.3503 316.39 24.4767 315.668 24.4948C314.945 24.5128 315.767 24.728 316.25 24.77C316.609 24.7975 316.974 24.8405 317.321 24.8959C317.669 24.9513 317.99 25.0178 318.263 25.0909L318.118 25.3357C317.905 25.3154 317.692 25.289 317.486 25.2575C316.786 25.123 316.15 24.9964 315.527 25.0746L315.824 25.2606L313.651 25.1527C313.707 25.2921 314.039 25.4509 314.575 25.5956C314.494 25.6751 314.444 25.7587 314.426 25.846C314.39 25.9072 314.176 25.8687 314.036 25.8753C313.539 25.8855 313.13 25.927 312.847 25.996C312.564 26.0651 312.415 26.1596 312.412 26.2713C312.356 26.3659 313.121 26.5621 313.599 26.5557C314.793 26.5745 316.085 26.6473 317.403 26.77C318.207 26.786 318.32 26.5373 319.643 26.707C319.669 26.8219 319.5 26.9149 319.16 26.9719C318.821 27.029 318.33 27.0471 317.761 27.0234C318.085 27.2784 319.875 27.3449 319.954 27.6115C319.508 27.5927 319.032 27.5484 318.571 27.483C318.111 27.4176 317.682 27.3333 317.329 27.2386C317.252 27.2152 317.157 27.1937 317.05 27.176C316.944 27.1583 316.83 27.1449 316.72 27.1372C316.609 27.1295 316.506 27.1277 316.419 27.1319C316.332 27.1361 316.264 27.1462 316.222 27.1612C316.47 27.2576 316.743 27.3691 317.054 27.4733C317.365 27.5775 317.44 27.6226 317.664 27.6444C319.337 27.8516 320.133 28.2249 321.58 28.4698C321.959 28.5168 322.006 28.6659 321.678 28.6491C321.365 28.6322 321.081 28.6344 320.859 28.6554C320.638 28.6765 320.486 28.7155 320.421 28.7681C320.178 28.8296 319.876 28.8784 319.521 28.9135C321.006 29.2965 322.776 29.635 324.665 29.897C325.023 29.9488 325.397 29.9804 325.73 29.9871C326.785 29.9875 327.904 30.0179 329.066 30.0777C329.477 30.094 329.858 30.0925 330.186 30.0732C331.264 30.0275 332.12 30.1275 332.902 30.4095L334.195 30.8564C334.153 30.9287 333.935 31.0093 333.768 31.12L334.779 31.3586L342.492 30.809L344.04 31.3411L346.261 31.3116C346.431 31.3269 346.602 31.3481 346.766 31.3741C347.215 31.5313 347.566 31.6822 348.053 31.8322C348.54 31.9821 349.411 32.0003 350.018 32.177C350.625 32.3537 351.232 32.3573 351.983 32.4623C352.054 32.599 351.981 32.7221 351.769 32.8239C351.7 32.9407 351.318 33.0129 351.252 33.1242C351.26 33.2366 351.118 33.3321 350.84 33.4019C350.562 33.4718 350.156 33.5138 349.66 33.5241C348.27 33.7636 346.594 33.9341 344.683 34.0305C344.515 34.0375 344.376 34.0537 344.274 34.078C344.172 34.1024 344.11 34.1344 344.091 34.1721C344.094 34.2813 343.966 34.3756 343.718 34.4482C343.47 34.5208 343.107 34.5698 342.656 34.5916C342.536 34.596 342.446 34.6097 342.396 34.631C342.225 34.6448 342.1 34.6711 342.034 34.7074C341.968 34.7437 341.963 34.7888 342.019 34.8384C342.074 34.8879 342.189 34.9402 342.353 34.9902C342.516 35.0402 342.722 35.0862 342.951 35.1238C343.283 35.1843 343.622 35.2422 343.966 35.2973C343.947 35.3307 343.604 35.3361 343.654 35.3662C343.789 35.4622 343.821 35.5521 343.746 35.6289C343.671 35.7056 343.492 35.7671 343.223 35.8084L345.066 36.5861C346.185 36.6939 347.283 36.8766 348.151 37.0995C348.152 37.1361 348.102 37.1667 348.006 37.1883C347.91 37.21 347.771 37.2219 347.603 37.2228C347.153 37.2388 346.728 37.2697 346.243 37.2873C345.947 37.3005 345.7 37.3294 345.518 37.3724C345.335 37.4154 345.22 37.4716 345.18 37.5378L346.262 37.8271C345.916 37.8977 345.658 37.9315 345.429 37.9748C345.559 38.0657 345.782 38.1598 346.082 38.2496C346.381 38.3395 346.748 38.4228 347.155 38.4931C347.265 38.5076 347.376 38.5182 347.483 38.5243C347.59 38.5304 347.69 38.5318 347.778 38.5285C348.617 38.4293 349.597 38.6044 350.549 38.7702C351.502 38.9359 352.019 39.0357 352.722 39.1646L354.067 39.1819C354.407 39.2429 354.711 39.3147 354.954 39.3914C355.197 39.4682 355.372 39.5478 355.465 39.6239C355.393 39.7463 354.755 39.6792 354.375 39.6918C353.473 39.768 352.287 39.7518 351.013 39.6458C350.697 39.6067 350.374 39.6382 350.067 39.642C349.404 39.6572 348.767 39.682 348.159 39.7162C347.758 39.7481 347.384 39.7875 347.038 39.8343C346.946 39.9901 348.4 40.1104 347.575 40.1873C347.859 40.2225 347.965 40.2715 348.111 40.2538C349.047 40.355 349.969 40.405 350.771 40.398C352.309 40.3766 354.055 40.4476 355.867 40.6052C357.822 40.7685 359.698 40.8371 361.339 40.8053C361.965 40.8034 362.663 40.8368 363.382 40.903C364.232 40.9947 365.075 41.0524 365.858 41.0722C366.117 41.0729 366.406 41.0885 366.7 41.1178C366.995 41.147 367.288 41.1891 367.554 41.2405C367.531 41.2795 367.277 41.3077 367.334 41.3267C368.144 41.6181 368.472 41.9216 369.719 42.2193C370.571 42.3249 371.55 42.4461 372.107 42.3061C372.665 42.1661 372.465 42.0458 371.356 41.6875C371.596 41.6823 371.886 41.6991 372.175 41.7348C372.463 41.7705 372.732 41.823 372.934 41.883L373.893 42.1511L374.758 42.4075C374.682 42.5354 374.623 42.6356 374.56 42.7413C374.461 42.8536 374.57 42.9902 374.871 43.1321C375.052 43.2096 375.211 43.287 375.344 43.3638C375.884 43.671 376.041 43.9612 375.796 44.2021C375.326 44.5485 374.672 44.8672 373.842 45.1545C372.964 45.4341 372.484 45.7867 371.762 46.0913C371.393 46.23 370.945 46.3544 370.423 46.463C369.433 46.7046 368.348 46.9345 367.354 47.1817C366.36 47.4289 365.238 47.6064 364.135 47.8102C362.492 48.052 360.716 48.2608 358.817 48.4355C357.642 48.5885 356.435 48.7377 355.348 48.9136C354.064 49.1119 352.556 49.2543 350.861 49.3373C349.364 49.4366 348.026 49.5834 346.874 49.7751C346.753 49.7958 346.658 49.8222 346.59 49.8534C346.383 50.0488 345.801 50.1865 344.934 50.2455C344.987 50.3027 345.054 50.3609 345.136 50.4198C345.256 50.49 345.282 50.5557 345.208 50.6083C345.135 50.661 344.966 50.6982 344.724 50.7151C344.031 50.7635 343.455 50.8457 343.021 50.9581C342.862 50.9863 342.763 51.0273 342.733 51.0777C342.704 51.1281 342.743 51.1863 342.85 51.2474C342.944 51.3103 342.951 51.3681 342.87 51.4134C342.788 51.4587 342.623 51.4894 342.394 51.5015C341.807 51.561 341.179 51.6089 340.513 51.6448C339.096 51.724 337.448 51.7231 335.669 51.642C335.48 51.6186 335.289 51.6547 335.068 51.6273C333.809 51.5364 332.641 51.5224 331.703 51.5868C330.604 51.6119 329.454 51.6069 328.295 51.6186C326.621 51.6107 325.076 51.6585 323.704 51.7606C322.136 51.662 321.255 51.8335 319.931 51.8368C318.709 51.8544 317.551 51.8967 316.468 51.9632C314.721 52.0514 312.981 52.1286 311.259 52.2318C309.644 52.2811 308.157 52.3752 306.823 52.5125C306.312 52.5746 305.386 52.4779 305.038 52.608C304.69 52.738 303.988 52.7227 303.42 52.7658L301.628 52.8724C301.32 52.8978 300.981 52.9138 300.617 52.9204C298.952 52.9291 297.798 53.1027 296.252 53.1382L296.094 53.1186C293.349 53.3768 290.208 53.5185 286.763 53.5395C284.751 53.6187 282.55 53.6149 280.415 53.6729C279.905 53.789 278.702 53.646 278.064 53.752C277.425 53.858 276.381 53.7885 275.558 53.8059C274.734 53.8234 273.929 53.867 273.049 53.8654C272.284 53.8659 271.639 53.9133 271.171 54.0032C270.103 54.1517 268.802 54.2391 267.324 54.2613C265.37 54.2999 263.522 54.3875 261.534 54.3682C261.563 54.4765 261.441 54.5686 261.181 54.6351C260.921 54.7016 260.533 54.7401 260.056 54.7465C257.93 54.7879 256.003 54.8955 253.849 54.9273L253.273 54.9276L246.831 54.9898C245.096 55.0018 243.424 55.0216 241.654 55.0353C240.991 54.9532 240.974 55.0945 240.516 55.0676C240.388 54.998 240.237 54.9673 240.011 55.005L239.961 55.0885L232.61 55.1992C229.732 55.2801 226.704 55.3044 223.553 55.2718C222.805 55.28 222.108 55.3076 221.471 55.3543C220.88 55.3714 220.265 55.3789 219.628 55.3769C218.766 55.3558 217.924 55.3452 217.105 55.3451C214.951 55.3769 212.691 55.3598 210.332 55.3364C207.974 55.3131 206.187 55.3545 204.088 55.3514C202.667 55.3485 201.252 55.3345 199.78 55.3015C199.078 55.2862 198.212 55.2028 197.485 55.1725C196.757 55.1421 196.52 55.1425 196.423 55.1903C196.107 55.3243 195.311 55.2377 194.675 55.2246C193.434 55.2023 193.258 55.1566 192.921 54.8103L194.443 54.7003C194.817 54.6647 195.286 54.6585 195.806 54.6821C196.326 54.7058 196.88 54.7585 197.413 54.8352C197.623 54.8681 197.843 54.8941 198.059 54.9116C198.276 54.9292 198.485 54.938 198.674 54.9376C200.21 54.9188 201.725 54.8795 203.201 54.8473L203.417 54.8263L203.43 54.5174C203.235 54.4871 203.033 54.462 202.831 54.4431L195.426 54.2427C193.727 54.1935 191.963 54.0825 190.295 54.0372C188.628 53.9919 187.729 53.9643 186.435 53.9175C185.889 53.8908 185.333 53.8558 184.769 53.8127C184.802 53.7829 184.821 53.7513 184.825 53.7181C184.855 53.668 184.895 53.6012 184.655 53.5477C184.394 53.4721 184.045 53.4076 183.678 53.3669C183.333 53.3401 182.999 53.3249 182.688 53.322C181.186 53.2961 179.471 53.1329 177.908 52.8673L177.363 53.0446C175.016 52.945 172.634 52.8471 170.182 52.7525C169.691 52.7267 169.176 52.6772 168.675 52.6076C168.139 52.5412 167.645 52.4024 167.08 52.3264C166.522 52.2718 165.967 52.2292 165.427 52.1993C165.573 52.1537 165.766 52.1173 165.999 52.0911C166.229 52.0819 166.396 52.0534 166.477 52.0097C166.558 51.9661 166.548 51.9094 166.448 51.8481C166.274 51.7429 166.197 51.6438 166.577 51.6311C166.928 51.6071 167.18 51.5552 167.302 51.4814C167.423 51.4076 167.41 51.315 167.264 51.2146C167.2 51.1559 167.155 51.0985 167.129 51.0426L166.971 51.023C166.451 50.8152 165.411 50.7402 164.664 50.5701C164.312 50.5208 163.947 50.4924 163.628 50.4895C162.802 50.4529 161.998 50.437 161.144 50.391C160.737 50.3698 160.31 50.3312 159.89 50.2774C159.29 50.2031 159.227 50.1953 158.879 49.9252C159.42 49.93 159.849 49.8896 160.093 49.811C160.337 49.7324 160.382 49.6205 160.219 49.494C159.773 49.2178 159.301 48.9265 157.283 48.7302C157.941 48.7206 158.575 48.7013 159.181 48.6727C159.357 48.6665 159.489 48.6462 159.559 48.6145C159.629 48.5828 159.634 48.5412 159.573 48.4953C159.511 48.4494 159.387 48.4014 159.216 48.3577C159.046 48.3139 158.837 48.2766 158.618 48.2506C157.552 48.0943 156.441 47.9897 155.408 47.9486C154.538 47.9304 153.752 47.9406 152.736 47.9401L151.536 47.7916C151.556 47.7582 151.38 47.7125 151.424 47.6941C151.729 47.5229 152.066 47.3555 152.412 47.1715C151.859 47.0721 151.38 46.9521 151.029 46.8253C150.679 46.6984 150.471 46.5699 150.431 46.4543C150.401 46.4195 150.409 46.3877 150.454 46.3613C150.499 46.3348 150.58 46.3144 150.691 46.3014C151.007 46.279 151.251 46.2364 151.403 46.1766C151.556 46.1169 151.614 46.0416 151.573 45.9568L150.64 45.6441C147.831 45.4211 145.073 45.2617 142.416 45.169L140.017 45.0989C139.728 45.0153 139.818 44.9786 140.09 44.9765C140.362 44.9744 141.128 44.9976 141.663 45.0101C142.125 45.0265 142.535 45.0157 142.854 44.9788C143.172 44.9419 143.389 44.8801 143.482 44.7994L142.677 44.4429C142.716 44.3761 142.772 44.2815 143.209 44.2879C143.508 44.2801 143.727 44.2465 143.833 44.1925C143.939 44.1384 143.925 44.067 143.792 43.9898C143.772 43.934 143.802 43.8832 143.881 43.8396C144.527 43.836 145.17 43.838 145.756 43.821C146.029 43.8154 146.26 43.7947 146.432 43.7604C146.604 43.7261 146.715 43.679 146.755 43.6222C146.776 43.5669 146.725 43.5038 146.605 43.4381C146.485 43.3724 146.3 43.3059 146.064 43.244C145.146 43.1675 144.305 43.1665 143.728 43.2413C143.522 43.2999 143.191 43.3319 142.779 43.3331C142.367 43.3343 141.893 43.3047 141.419 43.248C140.877 43.1828 140.336 43.1541 139.894 43.1671C139.451 43.1802 139.136 43.2341 139.005 43.3193C138.449 43.2862 137.955 43.2609 137.468 43.2245C136.894 43.1786 136.352 43.1651 135.899 43.1854C135.175 43.1998 134.394 43.1914 133.576 43.1604C131.215 43.0831 128.852 43.0113 126.567 42.9791C125.962 42.9699 125.439 42.9947 124.841 42.9744C124.243 42.9541 123.77 43.009 123.022 42.8985C122.88 42.8813 122.737 42.8702 122.604 42.8662C122.471 42.8622 122.352 42.8653 122.257 42.8753C120.944 42.9627 119.404 42.975 117.728 42.9116C115.433 42.8961 113.053 42.8521 110.755 42.8422C110.08 42.8507 109.443 42.8737 108.85 42.9109C108.398 42.9333 107.926 42.9485 107.434 42.9564C107.057 42.9635 106.696 42.9427 106.76 43.064C106.823 43.1854 106.259 43.1095 105.933 43.087C104.814 43.0282 103.671 42.9486 102.516 42.849C101.378 42.7407 100.262 42.6778 99.2369 42.6638C98.4962 42.6557 97.7324 42.6865 96.7801 42.5208C96.8164 42.4596 96.8526 42.3984 97.0599 42.3345C96.2833 42.1586 95.3972 42.0074 94.4749 41.8931C93.5526 41.7789 92.6207 41.705 91.7561 41.6776L90.564 41.3448C90.2704 41.3057 89.9708 41.2773 89.6832 41.2612C89.3956 41.245 89.1262 41.2416 88.8912 41.2511C88.7096 41.2559 88.4884 41.2435 88.268 41.2163C88.0476 41.189 87.8429 41.1486 87.6915 41.1025C87.4651 41.0439 87.1887 40.9934 86.8966 40.9572C86.6046 40.921 86.3101 40.9008 86.0499 40.8992C85.2308 40.863 84.3564 40.7794 83.5163 40.6571C83.2983 40.5853 83.1617 40.5112 83.1233 40.4438C83.0849 40.3765 83.1466 40.3188 83.3005 40.278C83.5487 40.2059 83.688 40.114 83.7101 40.0079C83.7322 39.9018 83.6366 39.7838 83.429 39.6609C83.3227 39.5854 83.2872 39.514 83.3246 39.4509C83.362 39.3878 83.4715 39.3343 83.6466 39.2937C84.3001 39.1059 84.1253 39.0006 83.0561 38.689C82.8824 38.6371 82.673 38.5885 82.4413 38.5465C82.2096 38.5044 81.9605 38.4697 81.7099 38.4447C81.1219 38.3939 80.5419 38.3561 79.9806 38.332C79.6649 38.2929 79.3411 38.3245 78.9774 38.3093C77.1586 38.2333 76.8924 38.1108 76.3033 37.8467L75.8741 37.6562C75.0779 37.5019 74.2072 37.3737 73.3246 37.2809C72.442 37.1881 71.5696 37.133 70.7702 37.1196C70.4524 37.1186 70.0871 37.0922 69.7302 37.0446C68.5688 36.8988 67.3926 36.7979 66.2796 36.7486C65.586 36.7208 64.8384 36.649 64.1265 36.5418C63.4146 36.4345 62.7687 36.2964 62.2664 36.144C61.8152 36.0068 61.2249 35.8835 60.5776 35.7916C59.8199 35.6977 59.7498 35.5875 60.1729 35.5025C60.596 35.4176 61.3046 35.3083 61.9337 35.219C62.1525 35.1886 62.2881 35.1393 62.3254 35.0764C62.3627 35.0135 62.3001 34.9396 62.1447 34.8629C62.0449 34.7316 62.0276 34.6071 62.0932 34.4923C62.1283 34.4445 62.1041 34.3898 62.0222 34.3318C61.9404 34.2738 61.8028 34.2138 61.6187 34.1559C61.4346 34.098 61.2084 34.0436 60.9552 33.9962C60.702 33.9489 60.4277 33.9097 60.1509 33.8814C58.9828 33.7368 57.8462 33.596 56.6551 33.4903C56.1559 33.4404 55.6572 33.3787 55.1713 33.3065C54.1766 33.128 53.1124 32.98 52.0406 32.871C51.5319 32.8223 51.0346 32.7371 50.6563 32.6338C49.463 32.3557 48.3634 32.0633 47.3776 31.7619C47.1399 31.6685 46.829 31.5773 46.4643 31.4941C46.0996 31.4109 45.6889 31.3375 45.2581 31.2785C44.9108 31.2355 44.6281 31.1407 44.3605 31.0777C44.166 30.9318 44.1452 30.7968 44.3001 30.6854C44.455 30.5741 44.7806 30.4899 45.2462 30.4409C45.6877 30.3821 46.1008 30.3139 46.4825 30.2417C46.9426 30.1834 47.4895 30.1483 48.1029 30.1378C48.8295 30.1065 49.3667 30.017 49.6446 29.8809C47.6557 29.6346 45.7643 29.2809 44.0209 29.3635L42.6963 29.1398C42.7491 29.0507 42.7952 28.9729 42.8381 28.9005C43.1531 28.7689 43.2515 28.6028 43.125 28.4165C43.0206 28.3263 43.03 28.2443 43.1522 28.1787C43.2744 28.1131 43.5051 28.0662 43.8209 28.0428C45.6915 27.8027 47.8546 27.6407 49.6088 27.3682C50.1588 27.3171 50.8026 27.2939 51.5133 27.2995C52.2007 27.2832 52.172 27.1602 51.3808 27.0084C50.9368 26.9291 50.4842 26.8532 50.0247 26.7808C47.9986 26.7687 47.1732 27.1323 44.8611 27.031L43.7895 26.5519C43.4997 26.5445 43.2184 26.5416 42.9474 26.5432L39.0706 26.7379C38.7477 26.7476 38.4963 26.7809 38.3451 26.834C38.1938 26.887 38.1487 26.9577 38.215 27.038C38.2412 27.1362 38.1878 27.2263 38.0567 27.3051C37.9721 27.3602 38.0262 27.4334 38.2071 27.5088C38.6147 27.6787 38.0917 27.7035 37.7614 27.7462C37.677 27.7504 37.5796 27.75 37.475 27.7449C37.3704 27.7399 37.2605 27.7304 37.1519 27.7169C37.0432 27.7035 36.9379 27.6863 36.842 27.6665C36.7461 27.6467 36.6616 27.6246 36.5933 27.6016C36.0114 27.4399 35.5024 27.2694 34.9304 27.091C35.3365 26.9204 34.8586 26.6402 35.4924 26.4858C35.5632 26.455 35.5916 26.4174 35.5757 26.3754C35.5598 26.3333 35.5 26.2878 35.3999 26.2415C35.1419 26.1219 35.019 26.0053 35.0436 25.9035C35.0683 25.8017 35.2396 25.7183 35.5403 25.6616L35.5765 25.6004C34.7835 25.3947 34.9936 25.2117 34.6821 24.994L33.9192 24.8517C32.0212 24.5092 32.0179 24.5147 30.3839 24.5273C30.0545 24.397 30.473 24.3771 30.7868 24.3623L33.415 24.216C35.1334 24.1183 36.9018 24.0506 38.8214 24.0137C40.741 23.9767 42.881 23.8536 44.8652 23.7649C44.9655 23.758 45.0422 23.7444 45.089 23.7253C45.1357 23.7062 45.151 23.682 45.1337 23.6548C45.0549 23.6255 44.9516 23.5971 44.8317 23.5719C44.7117 23.5468 44.578 23.5253 44.4406 23.5093C43.8091 23.4311 43.1613 23.3807 42.4884 23.3153L41.2341 23.2017L40.8482 23.0524C40.597 22.9616 40.4254 22.8507 40.0914 22.7855C39.816 22.7368 39.5172 22.6999 39.2259 22.6785C38.9346 22.6571 38.6615 22.6521 38.4352 22.664C37.8076 22.6937 37.2398 22.7369 36.6404 22.7761C36.0411 22.8153 35.7108 22.858 35.1911 22.8773C34.1352 22.886 33.1147 22.9092 32.1341 22.9466C31.3081 23.035 30.5442 23.1399 29.847 23.2605C29.4121 23.3082 29.0054 23.3653 28.2628 23.3032C27.9105 23.2468 27.6067 23.1729 27.4051 23.0943C27.2035 23.0158 27.1172 22.9378 27.1616 22.8741C27.2015 22.8243 27.3143 22.7848 27.4894 22.7595C27.6645 22.7341 27.8961 22.7238 28.1624 22.7294C28.9078 22.7202 29.5971 22.6893 30.2163 22.6374C31.0783 22.5433 32.1276 22.5027 33.303 22.518C33.7016 22.5316 33.9688 22.481 34.3175 22.4645C34.6661 22.448 34.9615 22.4069 35.3503 22.4372C36.5579 22.5151 37.137 22.3957 37.8607 22.3181C38.1057 22.2837 38.2575 22.2281 38.2994 22.1574C38.3413 22.0868 38.2716 22.0037 38.0981 21.9175C37.7641 21.7458 37.3555 21.5731 36.8787 21.4022C36.6333 21.3182 36.3188 21.2384 35.9601 21.1691C35.6014 21.0998 35.208 21.0429 34.8109 21.0028C34.5733 20.8976 34.4466 20.7942 34.4421 20.7019C34.4376 20.6096 34.5557 20.5313 34.7855 20.4741C35.3711 20.3436 35.8903 20.2108 37.2026 20.2838C37.8196 20.3116 38.4002 20.317 38.9214 20.2996C40.0776 20.2758 41.4111 20.3279 42.7965 20.4511C43.155 20.4826 43.5073 20.5041 43.8431 20.515C46.2381 20.5907 48.52 20.6284 50.8086 20.6551C52.0209 20.6679 53.2432 20.664 54.5088 20.7013C57.4768 20.7823 60.1786 20.7406 63.0434 20.767C64.5438 20.7806 65.8868 20.7261 67.0019 20.6063C67.219 20.5662 67.4055 20.5193 67.5592 20.4663C66.8202 20.3272 66.0086 20.2171 65.2019 20.1465C64.3953 20.0758 63.6207 20.0471 62.9524 20.063C62.585 20.1019 62.1101 20.109 61.5807 20.0835C61.0513 20.058 60.4882 20.0009 59.9542 19.9186L61.5068 19.872C62.5363 19.8502 63.5908 19.8435 64.592 19.8122C66.1828 19.7584 67.657 19.6722 69.3043 19.6374C70.6342 19.6053 71.8243 19.5234 72.8372 19.3941C73.5689 19.2999 74.4047 19.233 75.3274 19.1949C75.9833 19.1747 75.9833 19.1747 76.4026 18.9817C76.0699 18.8569 75.6398 18.8395 75.2345 18.8371C72.8051 18.7586 70.4932 18.7448 68.3458 18.7961C67.2623 18.8006 66.3011 18.8535 65.5083 18.9523C65.3142 18.9939 64.8176 18.9742 64.4189 18.9607C63.1693 18.9401 61.975 18.946 60.8502 18.9785C59.2952 19.0326 57.5633 19.0198 55.7218 18.9405C55.3726 18.8435 55.7745 18.8515 55.7943 18.8181C57.2206 18.7559 58.6186 18.6842 60.0731 18.6314C60.4707 18.6126 60.8958 18.6033 61.3434 18.6036C63.0147 18.6363 64.4073 18.5457 65.3263 18.3445C65.3725 18.2666 65.977 18.2758 66.2442 18.2252C66.3756 18.1815 66.4631 18.13 66.5042 18.0723C66.115 17.9286 65.6749 17.9278 65.3361 17.9276C64.3531 17.9437 63.4073 17.9741 62.5034 18.0187C61.6632 18.0612 60.7331 18.0726 59.7384 18.0525C59.0043 18.0332 58.3767 18.063 57.636 18.0549C57.2343 18.0378 56.8183 18.0103 56.3968 17.9731C56.8662 17.8729 57.5042 17.8112 58.266 17.7925C58.8437 17.7327 59.566 17.7146 59.6583 17.5589C59.3855 17.4474 59.0815 17.4456 58.8374 17.4572C58.3294 17.4568 57.8387 17.4638 57.3678 17.4782C56.3695 17.5099 55.2885 17.5103 54.1477 17.4795C53.547 17.468 52.977 17.4715 52.4472 17.4899C51.2466 17.5144 50.096 17.5689 48.9968 17.594C46.745 17.6197 44.6912 17.7117 42.5275 17.7602C42.0459 17.7723 41.6143 17.8143 40.9796 17.7417C40.3449 17.6691 40.3166 17.6596 40.2417 17.6145C40.0641 17.5392 40.0103 17.4663 40.0914 17.4107C40.2173 17.3589 40.4625 17.33 40.7835 17.3292C42.7177 17.2467 44.5522 17.1309 46.2756 16.9823C47.0341 16.9525 47.6986 16.8918 48.2461 16.8023C48.6802 16.7407 49.1953 16.6999 49.775 16.6812C50.6182 16.6366 51.4972 16.6039 52.4085 16.5833C52.8325 16.5722 53.193 16.5392 53.4689 16.4862C53.7447 16.4332 53.9303 16.3612 54.0146 16.2746L52.8975 15.987C52.722 15.9736 52.5478 15.962 52.3759 15.9522L43.1034 16.1594L42.1851 16.1651C41.1786 16.148 40.9327 16.1056 39.978 15.7723C42.1567 15.6939 43.8695 15.4654 44.9456 15.1096C44.687 15.0713 44.4218 15.0385 44.1563 15.0118C42.4152 14.9277 40.7692 14.9053 39.2819 14.9456C38.3984 14.9496 37.49 14.9387 36.5783 14.9332C36.8449 14.7692 37.8664 14.8181 38.5322 14.7811C40.123 14.7232 41.5297 14.6037 42.7073 14.4263C43.1134 14.3571 43.6213 14.3129 44.208 14.2956C44.7951 14.2897 45.2855 14.2478 45.6366 14.1737C45.9876 14.0996 46.1887 13.9954 46.2222 13.8703C46.2775 13.757 46.3967 13.6517 46.5779 13.556C46.2573 13.4202 45.7481 13.2902 45.1459 13.1904C44.5437 13.0905 43.89 13.0276 43.3074 13.0136C42.0636 12.9577 40.7735 12.8662 39.47 12.7414C38.8207 12.6784 38.1839 12.6423 37.6012 12.6353C37.0873 12.63 36.5032 12.5845 35.938 12.5059C35.3727 12.4272 34.8574 12.3198 34.4706 12.1998C33.9485 12.0515 33.4612 11.9016 32.974 11.7517C32.4867 11.6018 31.9213 11.4123 31.3526 11.2284C30.8511 11.1996 30.3628 11.1811 29.8943 11.1732C29.5297 11.1799 29.1044 11.1599 28.6684 11.1154C28.2324 11.0709 27.8039 11.0039 27.4336 10.9222C27.6508 10.8416 27.8963 10.7705 28.155 10.6771C27.7999 10.5538 27.5425 10.428 27.3984 10.3075C27.2543 10.187 27.2264 10.0742 27.3166 9.97606C27.3694 9.88704 26.9834 9.73772 26.8501 9.61968C26.6784 9.51792 26.6461 9.42296 26.7575 9.34723C26.8689 9.27151 27.1188 9.21857 27.4744 9.19536C27.9154 9.1525 28.2743 9.08797 28.5364 9.0044C28.6231 8.98271 28.6672 8.953 28.6647 8.91799C28.6623 8.88298 28.6133 8.8438 28.5222 8.80401C28.4312 8.76422 28.301 8.7251 28.1436 8.69023C27.9862 8.65537 27.8067 8.62586 27.6213 8.60441C27.0534 8.54361 26.4894 8.5042 25.9617 8.48845C25.0526 8.45946 24.1823 8.44126 23.3509 8.43383C22.4313 8.42265 21.4082 8.35363 20.3856 8.23379C19.4701 8.1204 18.6493 8.01874 18.2016 7.80205C17.7539 7.58536 17.0382 7.59227 16.4878 7.43452C16.797 7.29233 17.3465 7.19353 18.0809 7.1481C18.5614 7.13188 18.9626 7.08932 19.2586 7.02314C19.5546 6.95696 19.7389 6.86862 19.7997 6.76379L18.1288 6.32393C16.7943 6.11686 16.056 6.27624 14.6142 6.19321L16.0998 6.03084C16.1297 6.01479 16.1408 5.99595 16.1328 5.9752C15.9885 5.6468 15.7591 5.57657 14.2404 5.39445L13.388 5.28889L12.039 5.1636C11.8229 5.0963 11.6735 5.02612 11.6056 4.96006C11.5377 4.89401 11.5537 4.83441 11.6521 4.78723C11.8497 4.70788 11.9098 4.60647 11.8268 4.49236C11.696 4.41677 11.6852 4.34708 11.7963 4.29539C11.9074 4.2437 12.1334 4.21326 12.4351 4.20938C12.6759 4.20337 12.6937 4.116 12.8247 4.06654C12.9549 3.99835 13.1776 3.94603 13.4778 3.91314C13.778 3.88024 14.1485 3.86753 14.5642 3.87589C15.79 3.88271 16.9415 3.85712 17.9982 3.79956L17.8088 3.7761C18.9103 3.82663 19.94 3.83276 20.8479 3.79419C21.7578 3.74563 22.9254 3.77678 23.8918 3.74717C24.6786 3.75396 25.2775 3.68676 25.5617 3.55984C25.8368 3.43864 26.8367 3.46693 27.6023 3.4901C28.0559 3.50508 28.4943 3.51143 28.9128 3.50907C29.4745 3.48164 30.1768 3.5075 30.9026 3.58233C31.1204 3.60533 31.3349 3.6175 31.5255 3.61768C33.3707 3.64913 35.2125 3.68615 37.0327 3.70257C37.4528 3.69311 37.9455 3.71476 38.4528 3.76499C38.6661 3.78679 38.8736 3.79582 39.0476 3.79087C41.9237 3.74099 45.1692 3.86825 47.9887 3.79942C48.3305 3.78317 48.7088 3.77979 49.113 3.78937C50.0213 3.8298 50.8101 3.80378 51.3596 3.71527C51.6561 3.66819 52.0362 3.64225 52.4756 3.6391C52.9151 3.63595 53.4043 3.65565 53.912 3.69697C54.7569 3.75167 55.5378 3.75759 56.1722 3.71414C57.4093 3.67398 58.7102 3.65747 60.0647 3.66473C60.4798 3.67176 60.8446 3.65615 61.131 3.61913C61.4174 3.58211 61.6176 3.52465 61.7161 3.45123C61.3835 3.32642 61.0197 3.31123 60.6744 3.3222C59.3357 3.29376 58.0004 3.25976 56.6867 3.24635C55.5109 3.20807 54.3827 3.19636 53.3187 3.21142C52.7903 3.22839 52.1311 3.18968 51.4848 3.10372C50.6927 2.99487 49.8769 2.94078 49.2023 2.95241C48.7022 2.9553 48.1743 2.94593 47.6262 2.92442C47.2754 2.89849 46.9159 2.85395 46.5844 2.7954C46.4529 2.76996 46.3097 2.74857 46.1641 2.7326C46.0185 2.71664 45.8737 2.70645 45.7388 2.70267C45.6039 2.69889 45.4819 2.7016 45.3807 2.71065C45.2795 2.7197 45.2014 2.73489 45.1511 2.75523C44.6436 2.92529 43.509 2.8385 42.5374 2.81969C41.0814 2.53186 39.9978 2.70222 38.6369 2.53965C38.5293 2.52888 38.4233 2.52235 38.3253 2.52048C38.2274 2.51862 38.1396 2.52146 38.0672 2.52881C35.4338 2.62666 32.3645 2.54512 29.5996 2.57891C29.2947 2.58385 28.9407 2.56691 28.5781 2.53003C26.2078 2.28588 23.9289 2.21657 22.1868 2.33564C21.9749 2.34637 21.7337 2.34683 21.4744 2.33699C20.2834 2.23996 19.1444 2.20127 18.1525 2.22416C16.5981 2.21677 15.1035 2.22276 13.5241 2.20034C12.4354 2.16842 11.4802 2.20252 10.7544 2.29923C10.7314 2.33817 10.2479 2.2962 9.87753 2.29214C9.66454 2.1941 9.47988 2.10554 9.26029 2.01862C9.06399 1.91109 8.76994 1.80228 8.39816 1.69956C8.02638 1.59684 7.58559 1.50263 7.10548 1.42329C6.28466 1.32163 6.20257 1.1741 6.77693 1.11983C8.25736 0.940264 10.1189 0.866771 12.2248 0.904741C13.9851 0.907775 15.7771 0.914727 17.5624 0.932799C18.6037 0.948303 19.7015 0.98274 20.7146 0.98877C21.0564 1.00202 21.4075 1.02154 21.7644 1.04713C22.2022 1.08424 22.6273 1.10446 23.0168 1.1067C24.2675 1.07545 25.6632 1.10267 27.1374 1.18706C27.6774 1.20547 28.1959 1.21167 28.6852 1.20558C29.8428 1.18267 31.0978 1.19953 32.417 1.25571C33.2369 1.28738 34.0318 1.30395 34.7937 1.30522C35.0627 1.30868 35.2818 1.28207 35.541 1.30222C37.8221 1.51308 39.4372 1.36078 41.4902 1.44186C42.488 1.46447 43.4413 1.46453 44.3366 1.44205C46.084 1.44314 47.88 1.46626 49.7176 1.51131C52.1475 1.58532 54.3993 1.55964 56.7194 1.5902C57.1774 1.59662 57.6197 1.59553 58.043 1.58692C60.102 1.53004 62.3383 1.54211 64.6976 1.62281C65.2333 1.63447 65.7144 1.62021 66.1108 1.58094C66.5073 1.54167 66.8105 1.47823 67.0016 1.39458C67.0824 1.33718 67.03 1.26261 66.8545 1.18527C66.5633 1.08651 66.2345 0.989736 65.8735 0.896556L52.741 0.583878C52.1894 0.567551 51.6515 0.558761 51.13 0.557547C49.5963 0.554828 48.0153 0.530504 46.3951 0.484694C44.794 0.441664 43.2645 0.449302 41.7133 0.436347C41.2564 0.432007 40.7874 0.421767 40.3083 0.405657C37.0696 0.278154 33.9115 0.200278 30.8562 0.172585C29.5708 0.168655 28.1822 0.110139 26.8719 0.0911732C25.5615 0.0722053 23.7695 0.0652622 22.2151 0.0578694L17.4025 0.0590037C16.4559 0.0552313 15.5342 0.0664908 14.6159 0.0721907C13.5014 -0.334573 13.1174 -0.429914 11.6303 -0.608122C11.1216 -0.673859 10.6041 -0.713088 10.1385 -0.721217C8.66232 -0.689062 6.81006 -0.822916 5.41017 -0.805194C4.56546 -0.813936 3.84868 -0.768748 3.33322 -0.674258C2.88576 -0.600101 2.37409 -0.541422 1.8061 -0.499108C0.250182 -0.847084 0.11306 -1.07308 1.28347 -1.16103C1.60057 -1.18148 2.03736 -1.17515 2.26634 -1.21845C2.39773 -1.24483 2.57722 -1.25991 2.79051 -1.26252C3.0038 -1.26512 3.24498 -1.25519 3.49515 -1.23348C4.28469 -1.17653 5.02472 -1.16314 5.64098 -1.19465C6.22095 -1.23634 6.93187 -1.23468 7.7052 -1.18981C8.27346 -1.11943 8.77293 -1.21881 9.26438 -1.24752C9.75582 -1.27623 10.1591 -1.32781 10.9267 -1.25066C11.0672 -1.2353 11.2068 -1.22607 11.3346 -1.2237C11.4624 -1.22133 11.5752 -1.22586 11.6641 -1.23696C12.4885 -1.28665 13.4723 -1.28143 14.5355 -1.22173C16.1663 -1.16298 17.6963 -1.16077 19.0726 -1.21519C19.8964 -1.26281 20.5988 -1.34725 21.1523 -1.46522C21.3032 -1.50467 21.5272 -1.52833 21.803 -1.53393C23.1877 -1.50931 24.6913 -1.41668 26.2167 -1.26199C26.7913 -1.20001 27.3653 -1.15099 27.9262 -1.11596C29.079 -1.03815 30.194 -0.994545 31.2381 -0.986442C32.7554 -0.985158 34.3351 -0.95522 35.9632 -0.896898C36.968 -0.864425 37.9362 -0.85244 38.8563 -0.861072C39.802 -0.865141 40.8117 -0.840371 41.8625 -0.787336C42.9075 -0.744119 43.8285 -0.769019 44.5143 -0.859026C44.7401 -0.907527 44.922 -0.965121 45.0566 -1.03073C43.5265 -1.24424 41.944 -1.35274 40.6278 -1.3344C40.1279 -1.34854 39.7128 -1.33427 39.186 -1.41743L39.1695 -1.38961C39.0647 -1.37156 38.9065 -1.3673 38.7252 -1.37765C38.5438 -1.38799 38.352 -1.41222 38.1862 -1.44571C38.2488 -1.55141 38.3082 -1.65156 38.351 -1.72389C39.3539 -1.71113 40.3276 -1.71216 41.2672 -1.72699C42.0593 -1.74833 43.1345 -1.56141 43.8201 -1.63177C45.1573 -1.54379 46.0088 -1.66527 47.2079 -1.63022C48.4071 -1.59516 49.7279 -1.47936 50.927 -1.4443C51.9734 -1.42507 52.9895 -1.42088 53.9695 -1.43178C54.3077 -1.44707 54.6977 -1.44348 55.1154 -1.42124C55.7026 -1.37938 56.2488 -1.37237 56.6913 -1.401C57.1337 -1.42964 57.4547 -1.49277 57.6173 -1.58315C57.4642 -1.66781 57.2578 -1.77697 57.0199 -1.89005C57.4576 -1.98297 58.1225 -2.02209 58.9158 -2.0016L60.0368 -2.00609C60.3339 -2.00364 60.5609 -2.02876 60.6711 -2.07625C60.7812 -2.12374 60.766 -2.18997 60.6286 -2.26125C58.503 -2.62006 58.4248 -2.65962 56.8647 -2.42883L54.7933 -2.53607L54.8282 -2.53772ZM82.8451 -1.55208L82.6873 -1.57162L82.8451 -1.55208ZM340.978 36.6232L340.942 36.6844L340.981 36.6177L341.328 36.6607L341.351 36.6217L340.978 36.6232ZM290.557 9.79924C290.067 9.73247 289.571 9.67109 289.074 9.61547C288.943 9.60684 288.822 9.60489 288.718 9.60979C288.615 9.61468 288.534 9.62627 288.481 9.64357C288.441 9.71033 288.719 9.75666 288.971 9.78794C289.29 9.83004 289.615 9.85679 289.914 9.86544C290.213 9.87409 290.474 9.86432 290.671 9.83714L290.956 9.81278L290.557 9.79924ZM37.7375 26.0711C38.0606 26.0824 38.3671 26.0842 38.6493 26.0766C39.9012 26.0226 41.0998 25.9441 42.3833 25.8941C44.0028 25.767 45.8637 25.7153 47.8962 25.7408C48.6902 25.7532 49.3611 25.7121 49.8304 25.622C50.1114 25.5737 50.474 25.5455 50.8962 25.539L56.2696 25.3924C56.6017 25.3619 56.8889 25.3192 57.1243 25.2653C56.6507 25.2067 56.3351 25.1676 56.1456 25.1441C55.7526 25.1375 55.4148 25.1554 55.166 25.196C54.8989 25.2647 54.4472 25.2919 53.9009 25.2722C53.3493 25.2558 52.8114 25.2471 52.29 25.2458C51.3052 25.2493 50.3137 25.2638 49.3257 25.2729C48.9412 25.4641 47.8066 25.3773 46.835 25.3585L46.0844 25.3671C43.6308 25.4662 41.2872 25.6026 39.0647 25.7757C38.6352 25.8049 38.2652 25.8516 37.966 25.9143C37.8533 25.9632 37.8172 26.0241 37.8605 26.0923L37.7027 26.0728L37.7375 26.0711ZM147.301 44.3587C147.897 44.3718 148.516 44.3985 149.152 44.4386C149.641 44.4796 150.119 44.5044 150.565 44.5122C153.068 44.5551 155.676 44.6541 158.354 44.8079C158.704 44.8312 159.04 44.8426 159.35 44.8418L161.542 44.8027C162.233 44.7808 162.246 44.7585 161.743 44.4633C161.326 44.406 160.904 44.3538 160.48 44.3069C160.228 44.2756 159.817 44.2248 159.721 44.2726C159.136 44.4031 158.067 44.3186 157.169 44.2909C154.568 44.2196 151.886 44.1143 149.26 44.028C148.704 44.0069 148.167 43.9962 147.652 43.9961C147.332 43.9916 147.041 44 146.79 44.0207C146.717 44.0228 146.655 44.029 146.61 44.0388C146.565 44.0487 146.536 44.0619 146.527 44.0777C146.517 44.0935 146.527 44.1114 146.556 44.1304C146.584 44.1494 146.63 44.1689 146.691 44.1876C146.906 44.2533 147.154 44.3163 147.428 44.3744L147.301 44.3587ZM166.355 1.51702L168.917 1.48202C169.224 1.47827 169.485 1.43887 169.814 1.45572C171.568 1.50911 173.193 1.49424 174.618 1.41174C175.103 1.37807 175.671 1.37134 176.29 1.39192C178.186 1.45288 179.974 1.45539 181.606 1.39937C182.661 1.38812 183.648 1.35036 184.553 1.28664C184.623 1.27185 184.666 1.25177 184.681 1.22776C184.695 1.20376 184.68 1.1764 184.636 1.14755C184.624 1.12933 184.593 1.10972 184.545 1.09008C184.496 1.07045 184.432 1.05125 184.355 1.03381C184.278 1.01637 184.192 1.00111 184.101 0.989076C184.01 0.977039 183.918 0.968508 183.829 0.964081C182.686 0.877829 181.601 0.847781 180.662 0.876376C179.792 0.910589 178.855 0.920601 177.866 0.906254C176.919 0.902481 176.277 1.01404 175.107 0.928917C174.613 0.900884 174.176 0.910113 173.872 0.955056C173.259 1.02955 172.404 1.03369 171.459 0.966749C170.893 0.932869 170.353 0.91834 169.858 0.923715C168.657 0.948207 167.51 0.997208 166.398 1.04456C166.047 1.05551 165.671 1.05702 165.277 1.04906L159.706 0.956344C158.368 0.927902 157.032 0.893898 155.719 0.880494C154.644 0.851392 153.644 0.860506 152.754 0.907518C151.805 0.956928 150.771 0.976987 149.669 0.967317C147.959 0.994358 146.258 1.0047 144.396 1.00106C143.209 1.0033 141.993 0.996068 140.753 0.973795C140.125 0.945127 139.592 0.968472 139.257 1.03933C139.053 1.09767 138.573 1.05015 138.174 1.03661C136.048 0.906112 134.054 0.875193 132.331 0.946C132.111 0.957539 131.87 0.961715 131.612 0.958459C129.953 0.956029 128.234 0.940212 126.642 0.940038C126.222 0.945539 125.828 0.960634 125.463 0.985132C125.502 1.0251 125.613 1.06842 125.774 1.10611C125.935 1.14379 126.132 1.17296 126.326 1.18754C127.832 1.29921 129.286 1.35819 130.628 1.36203C132.86 1.34781 135.199 1.37979 137.62 1.45763C139.498 1.53611 141.21 1.51958 142.63 1.40929C143.739 1.32699 145.183 1.35796 146.712 1.49687C147.366 1.56321 148.002 1.58974 148.531 1.57283C149.04 1.55064 149.624 1.55602 150.25 1.58865C151.568 1.65069 152.836 1.67946 154.028 1.67442C155.194 1.65158 156.281 1.58919 157.479 1.57026C158.676 1.55133 160.499 1.56218 161.976 1.53002C163.452 1.49787 164.912 1.49354 166.355 1.51702ZM60.1825 -1.73723C60.3177 -1.56521 60.7965 -1.45813 61.3115 -1.41226C63.0871 -1.20859 64.8425 -1.12191 66.283 -1.16679C67.0611 -1.22939 68.0984 -1.2053 69.1911 -1.09924C70.4635 -0.988985 71.6527 -0.9707 72.5493 -1.04761C72.7689 -1.06104 72.9371 -1.08945 73.0388 -1.1303C73.0586 -1.16368 73.0949 -1.22488 73.1015 -1.23601C73.0073 -1.26423 72.8918 -1.29037 72.7638 -1.31243C72.6359 -1.33449 72.499 -1.35187 72.3636 -1.36322L66.4823 -1.56014L65.4574 -1.60348C63.5854 -1.717 61.8016 -1.76223 60.1825 -1.73723ZM71.7511 0.985513C72.669 1.26642 72.6722 1.26084 73.1425 1.32505C75.4112 1.59178 77.6783 1.73576 79.6741 1.73987C80.1177 1.73905 80.4942 1.71194 80.7716 1.6608C80.9143 1.65387 81.0052 1.63185 81.0243 1.59954C81.0435 1.56724 80.9894 1.52726 80.8738 1.48833L80.1439 1.29044C78.8183 1.20476 77.5117 1.13669 76.2321 1.08663C74.7422 1.02751 73.4218 1.02523 71.8773 1.00114L71.7511 0.985513ZM147.191 43.1149C148.047 43.5015 148.05 43.4959 149.482 43.5957C150.48 43.6663 151.448 43.7078 152.357 43.7189C153.468 43.7311 154.607 43.7527 155.715 43.7705C155.986 43.7828 156.215 43.7726 156.358 43.7418C156.502 43.711 156.549 43.6619 156.492 43.6039C156.346 43.541 156.119 43.4801 155.846 43.4312C155.574 43.3823 155.272 43.3482 154.991 43.3344L154.386 43.3252C153.652 43.306 152.89 43.2772 152.181 43.273C151.721 43.289 151.188 43.2766 150.623 43.2368C150.059 43.197 149.479 43.1307 148.928 43.0434L147.191 43.1149ZM76.3183 -1.23174C76.5467 -1.16479 76.805 -1.10066 77.0863 -1.04107C78.1757 -0.875898 79.3286 -0.782087 80.3192 -0.778027C80.7875 -0.767796 81.2158 -0.804327 81.6927 -0.75124C82.5479 -0.680301 83.3768 -0.642513 84.1345 -0.639921C84.1345 -0.639921 84.3469 -0.655411 84.4167 -0.658719L84.5617 -0.903515C84.2031 -0.960224 83.829 -1.00655 83.4568 -1.04037C82.2076 -1.1055 80.9802 -1.15002 79.756 -1.20011C78.5319 -1.25021 78.105 -1.27321 77.3045 -1.29473C76.9474 -1.2829 76.6171 -1.26181 76.3183 -1.23174ZM49.268 29.2012L50.9027 29.7023C51.4316 29.7458 51.9258 29.7537 52.31 29.7247C52.6942 29.6958 52.9473 29.6316 53.0309 29.5419C53.1655 29.4999 53.179 29.4377 53.0685 29.3683C52.9579 29.299 52.732 29.2278 52.4381 29.1698C52.1552 29.1011 51.8323 29.0394 51.4892 28.9887C51.1462 28.938 50.7905 28.8994 50.444 28.8751L49.268 29.2012ZM62.8782 26.7065C61.809 26.6216 60.7864 26.5868 59.8885 26.605C59.3228 26.6547 58.5562 26.6388 57.746 26.5606C56.2727 26.4047 54.8523 26.3616 53.7848 26.4402C53.7848 26.4402 53.7451 26.507 53.5642 26.5264C53.3833 26.5458 54.1009 26.5929 54.2587 26.6124C55.4165 26.6602 56.5808 26.6969 57.5872 26.7141C58.2121 26.7134 58.873 26.7291 59.5587 26.7612C60.502 26.8106 61.3967 26.8266 62.2077 26.8086C62.2077 26.8086 62.5215 26.7937 62.8749 26.7121L62.8782 26.7065ZM177.059 0.60926C176.548 0.514899 175.995 0.438206 175.439 0.38494C174.884 0.331676 174.341 0.303225 173.852 0.301709C173.478 0.296786 173.175 0.3217 172.992 0.372514C172.808 0.423326 172.754 0.49714 172.839 0.582281C173.218 0.629201 173.723 0.691761 174.007 0.726951C174.992 0.723507 175.832 0.678261 177.059 0.60926ZM272.653 8.56114C272.243 8.48517 271.792 8.4271 271.351 8.39353C270.909 8.35997 270.495 8.35228 270.156 8.37134C269.982 8.37961 270.1 8.46592 270.071 8.51599C270.051 8.52735 270.051 8.54146 270.071 8.55687C270.091 8.57228 270.13 8.58841 270.183 8.60357C270.236 8.61873 270.303 8.63236 270.375 8.64304C270.447 8.65372 270.522 8.66105 270.593 8.66426C271.037 8.69698 271.457 8.70672 271.814 8.69261C272.171 8.6785 272.455 8.64098 272.64 8.58339L272.653 8.56114ZM279.058 9.64704C278.995 9.60221 278.86 9.5555 278.678 9.51545C278.496 9.4754 278.28 9.4447 278.069 9.42899C277.696 9.42688 277.357 9.43931 277.064 9.46581C276.747 9.48626 276.976 9.61603 277.404 9.69303C277.586 9.72393 277.78 9.74804 277.971 9.76343C278.162 9.77883 278.345 9.78507 278.505 9.78169C278.665 9.77831 278.797 9.76537 278.892 9.74393C278.987 9.72249 279.042 9.69312 279.052 9.65816L279.058 9.64704ZM92.9456 -0.754973C91.99 -0.91513 91.2545 -0.874838 90.4454 -0.939209C89.6364 -1.00358 89.4371 -1.01035 89.5455 -0.907347C89.6539 -0.804344 90.2085 -0.825233 90.5557 -0.782222C91.0249 -0.725151 91.497 -0.69238 91.919 -0.687566C92.3411 -0.682753 92.6965 -0.706093 92.9456 -0.754973ZM292.071 26.3438C291.564 26.3078 291.069 26.2824 290.591 26.268C290.528 26.2829 290.488 26.3024 290.475 26.3253C290.461 26.3482 290.474 26.3741 290.512 26.4015C290.512 26.4015 290.836 26.4834 291.025 26.5069C291.723 26.5874 291.757 26.4722 292.071 26.3438ZM363.608 41.2654C363.951 41.3735 364.111 41.4471 364.385 41.4989C364.511 41.517 364.641 41.53 364.766 41.5372C364.891 41.5444 365.007 41.5455 365.106 41.5405C365.226 41.5093 365.255 41.4616 365.185 41.4069C365.185 41.4069 364.836 41.31 364.703 41.3054C364.324 41.2825 363.956 41.2691 363.608 41.2654ZM76.6801 -1.67066C75.954 -1.76059 75.2594 -1.84662 74.7567 -1.74167C75.9097 -1.62873 75.9097 -1.62872 76.6801 -1.67066ZM88.4406 -0.64407C87.7074 -0.836402 87.2772 -0.853856 86.9252 -0.831757C86.8504 -0.826192 86.8009 -0.813786 86.7842 -0.796423C86.7675 -0.779062 86.7844 -0.757687 86.8326 -0.735531C86.8807 -0.713375 86.9573 -0.691646 87.0509 -0.673627C87.1445 -0.655609 87.2499 -0.642284 87.3512 -0.635668C87.7335 -0.630132 88.0982 -0.632943 88.4406 -0.64407ZM126.177 -0.562741C126.193 -0.590559 126.213 -0.62394 126.024 -0.6474C125.974 -0.65931 125.916 -0.669551 125.855 -0.677101C125.794 -0.684651 125.732 -0.689238 125.676 -0.690405C125.676 -0.690405 125.657 -0.657023 125.644 -0.634769L126.177 -0.562741ZM152.382 45.621L151.96 45.6464L152.15 45.6699L152.65 45.684L152.382 45.621ZM300.868 9.21297C300.71 9.19341 300.552 9.17386 300.529 9.21281C300.496 9.21884 300.475 9.22755 300.469 9.23819C300.462 9.24884 300.471 9.26111 300.493 9.27401C300.493 9.27401 300.714 9.30138 300.808 9.31311L300.868 9.21297ZM276.284 9.52444C276.18 9.52221 276.087 9.52482 276.009 9.53211L275.989 9.56549L276.305 9.6046L276.284 9.52444ZM62.0444 17.4781C61.9224 17.4579 61.7932 17.4419 61.6656 17.4312L61.5076 17.4117C61.5076 17.4117 61.6773 17.4685 61.772 17.4802C61.8667 17.492 61.9431 17.4775 62.0444 17.4781Z"/>
</symbol>
</defs>
</svg>
